<svg xmlns="http://www.w3.org/2000/svg" width="1254" height="836" viewBox="0 0 1254 836">
    <g>
        <path
            d="M 579.88 567.03 C579.36,577.44 577.08,591.04 574.68,598.55 C576.42,592.45 578.38,582.76 578.62,578.50 C578.81,575.20 579.31,568.46 579.73,563.53 L 580.50 554.56 L 579.88 567.03 ZM 675.53 603.57 C663.76,603.23 639.07,603.15 617.16,603.40 C600.87,603.59 590.54,603.69 584.04,603.65 C592.17,603.64 604.06,603.55 617.25,603.40 C639.12,603.15 663.77,603.23 675.53,603.57 Z"
            fill="rgba(0,0,0,1)" />
        <path
            d="M 400.49 439.50 C400.66,439.81 400.83,440.14 401.00,440.47 C401.83,442.11 404.39,445.27 406.70,447.50 C410.74,451.41 410.86,451.70 409.97,455.53 C409.41,457.94 409.42,460.67 409.98,462.50 C410.49,464.15 410.91,466.62 410.92,468.00 C410.96,473.42 411.39,477.00 412.02,477.00 C412.37,477.00 412.67,477.67 412.67,478.50 C412.67,482.16 410.97,479.47 409.85,474.03 C408.62,468.11 406.51,465.67 404.79,468.22 C403.65,469.91 404.33,478.40 405.82,483.54 C405.76,483.36 405.69,483.18 405.62,483.00 C402.89,475.83 400.74,459.69 401.02,448.50 C401.12,444.64 400.92,441.51 400.49,439.50 ZM 407.96 488.77 C411.10,495.65 414.16,500.58 418.93,505.16 C414.03,500.50 410.91,495.54 407.96,488.77 ZM 395.42 431.40 C395.79,432.05 396.18,432.75 396.60,433.50 C397.35,434.84 398.17,436.12 398.63,436.71 C398.12,436.20 397.35,435.06 396.66,433.75 C396.22,432.90 395.81,432.12 395.42,431.40 ZM 385.50 421.49 C388.48,422.17 389.60,422.28 391.17,424.32 C389.65,422.51 388.26,422.12 385.50,421.49 Z"
            fill="rgba(143,78,7,1)" />
        <path
            d="M 410.42 452.99 C410.49,451.25 409.61,450.32 406.70,447.50 C404.39,445.27 401.83,442.11 401.00,440.47 C400.18,438.84 399.23,437.27 398.89,437.00 C398.55,436.73 397.52,435.15 396.60,433.50 C390.23,422.12 390.76,422.69 385.50,421.49 C378.70,419.95 375.02,417.86 370.41,412.94 C368.26,410.64 364.30,406.46 361.60,403.63 C355.95,397.72 353.96,393.67 354.72,389.69 C355.46,385.83 359.04,383.70 363.99,384.17 C366.19,384.38 368.00,384.50 368.00,384.43 C368.00,384.36 367.25,382.81 366.34,380.97 C364.21,376.70 363.45,368.90 364.90,366.19 C366.36,363.46 372.27,361.79 375.84,363.09 C377.30,363.62 379.51,365.29 380.75,366.78 C382.97,369.47 382.99,369.48 383.00,367.20 C383.00,364.15 385.52,359.40 387.54,358.62 C390.09,357.64 395.82,357.90 396.51,359.02 C396.86,359.58 397.53,359.79 398.00,359.50 C398.42,359.24 398.57,335.78 398.41,304.69 C398.82,355.69 399.08,360.43 400.57,362.08 C401.53,363.13 402.86,364.00 403.53,364.00 C404.83,364.00 406.00,368.36 406.00,373.23 C406.00,375.72 406.29,376.08 407.75,375.40 C408.71,374.95 411.16,374.59 413.20,374.59 C417.39,374.59 420.33,376.78 422.61,381.59 C423.99,384.50 423.95,385.29 422.18,390.70 C419.95,397.49 416.70,404.16 413.50,408.50 C409.98,413.29 409.84,414.76 412.43,419.80 C415.61,425.99 417.26,428.12 425.00,436.00 C429.04,440.12 433.77,443.74 437.50,445.56 C443.12,448.31 444.16,448.48 453.85,448.24 C462.87,448.02 464.69,448.26 468.02,450.13 C473.37,453.14 475.41,457.35 474.77,464.03 C474.35,468.42 473.69,469.88 471.11,472.19 C469.38,473.74 467.10,475.00 466.04,475.00 C464.98,475.00 463.84,475.45 463.50,476.00 C462.74,477.24 452.32,477.33 451.57,476.11 C451.27,475.62 448.09,474.64 444.51,473.93 C440.93,473.22 438.00,472.30 438.00,471.88 C438.00,471.47 436.99,470.83 435.75,470.45 C432.71,469.53 417.29,459.36 413.25,455.62 L 410.42 452.99 ZM 613.60 416.84 C606.42,419.48 604.42,419.74 596.50,419.02 C572.89,416.90 558.00,395.42 562.45,369.94 C563.60,363.31 566.36,356.08 569.04,352.61 C579.64,338.91 592.77,333.62 607.83,336.99 C618.49,339.37 629.88,349.51 633.61,359.94 C634.51,362.45 635.83,365.85 636.55,367.50 C637.92,370.66 638.28,386.74 637.02,388.50 C636.63,389.05 635.54,391.91 634.60,394.85 C632.63,401.02 632.45,401.28 624.60,409.10 C620.64,413.04 617.03,415.58 613.60,416.84 ZM 784.64 414.57 C771.76,420.45 757.79,418.13 746.90,408.29 C738.69,400.87 734.89,391.19 734.81,377.50 C734.72,363.51 737.56,355.59 745.81,346.77 C759.59,332.04 779.44,331.21 793.30,344.80 C802.68,354.00 806.30,363.22 806.19,377.66 C806.16,382.70 805.60,388.77 804.96,391.16 C802.33,400.94 794.33,410.15 784.64,414.57 ZM 693.11 464.47 C686.85,466.09 678.12,466.21 675.42,464.70 C674.63,464.25 673.54,464.17 672.99,464.50 C672.45,464.84 672.00,464.75 672.00,464.31 C671.99,463.86 669.30,462.38 666.00,461.00 C662.70,459.62 660.01,458.16 660.00,457.75 C660.00,457.34 659.36,457.00 658.58,457.00 C656.58,457.00 650.80,449.98 647.12,443.08 C644.01,437.24 641.00,424.80 641.00,417.78 C641.00,415.73 642.08,411.63 643.39,408.65 C645.64,403.56 646.05,403.19 650.64,402.13 C657.09,400.64 662.14,401.30 670.00,404.64 C675.67,407.06 677.78,407.41 686.50,407.40 C695.25,407.39 697.53,407.00 704.75,404.26 C717.23,399.54 723.74,400.72 727.73,408.44 C729.78,412.41 728.92,426.57 726.19,433.74 C719.86,450.40 709.19,460.30 693.11,464.47 ZM 856.05 433.62 L 855.68 448.41 L 860.09 444.28 C862.52,442.01 865.58,439.22 866.90,438.08 C868.22,436.94 869.00,436.00 868.62,436.00 C868.24,436.00 869.73,433.57 871.92,430.60 C877.29,423.33 877.72,421.12 874.88,415.28 C873.60,412.65 872.48,410.05 872.39,409.50 C872.29,408.95 871.47,405.65 870.56,402.18 C867.03,388.69 870.24,379.60 878.53,379.60 C881.68,379.60 882.88,380.25 885.66,383.47 L 889.00 387.33 L 889.02 383.92 C889.05,379.63 891.96,373.21 895.25,370.19 C897.28,368.32 898.67,367.94 902.53,368.19 C908.86,368.60 911.57,371.94 911.35,379.05 L 911.20 383.94 L 914.76 382.46 C918.59,380.86 921.40,381.27 924.36,383.87 C929.30,388.19 928.32,394.86 921.94,400.32 L 918.03 403.67 L 920.94 403.67 C924.77,403.67 928.81,406.41 929.60,409.53 C930.69,413.90 928.32,417.25 920.40,422.50 C908.02,430.72 905.36,432.05 900.15,432.67 L 895.16 433.26 L 889.83 442.34 C880.72,457.88 868.43,469.05 855.75,473.34 C854.87,473.64 854.39,474.29 854.17,475.72 C854.86,464.53 855.49,450.02 856.05,433.62 ZM 697.38 601.80 C697.10,601.36 697.40,601.00 698.02,601.00 C698.65,601.00 698.98,600.44 698.75,599.75 C698.51,599.06 699.41,594.96 700.74,590.62 C702.09,586.20 702.89,581.71 702.56,580.37 C702.20,578.95 702.40,578.00 703.06,578.00 C704.17,578.00 704.10,553.76 702.99,552.65 C702.80,552.46 698.21,552.50 691.64,552.70 C701.35,552.23 709.42,551.65 716.00,550.96 C727.32,549.78 761.84,546.21 774.50,544.92 C793.73,542.95 807.52,540.95 817.64,538.37 C807.52,540.95 793.75,542.95 774.50,544.92 C740.76,548.38 733.38,549.18 732.45,549.46 C731.77,549.67 731.64,552.01 732.08,556.14 C733.37,568.38 729.81,594.47 725.77,602.36 C725.21,603.44 725.19,604.59 725.70,605.10 C726.19,605.59 733.10,606.22 741.05,606.50 C742.21,606.54 743.31,606.58 744.36,606.63 C741.79,606.94 743.36,608.22 747.38,610.75 C752.88,614.21 756.83,618.89 757.63,622.91 C758.17,625.58 757.75,626.50 754.69,629.39 C750.38,633.45 747.85,633.98 733.00,633.86 C717.67,633.75 715.27,633.60 714.42,632.76 C714.03,632.36 712.64,632.30 711.35,632.63 C709.85,633.00 709.00,632.78 709.00,632.00 C709.00,631.33 708.33,631.04 707.50,631.36 C706.67,631.68 706.00,631.45 706.00,630.85 C706.00,630.26 705.20,629.98 704.22,630.23 C703.24,630.49 701.85,630.07 701.13,629.30 C700.41,628.52 699.30,628.08 698.66,628.30 C698.02,628.52 696.26,627.42 694.75,625.86 C691.30,622.29 691.04,616.00 694.07,609.35 C695.21,606.85 695.84,604.51 695.49,604.15 C695.43,604.10 694.79,604.05 693.63,604.00 C697.48,603.80 698.19,603.12 697.38,601.80 ZM 552.62 554.28 C552.74,554.40 574.36,554.45 600.67,554.40 C604.09,554.39 607.44,554.38 610.72,554.37 L 580.50 554.56 L 579.73 563.53 C579.31,568.46 578.81,575.20 578.62,578.50 C578.33,583.79 575.37,597.43 573.49,602.21 C573.04,603.35 574.35,603.71 590.42,603.65 C575.20,603.90 571.91,604.56 571.20,606.28 C571.00,606.76 571.00,607.33 571.00,607.99 C571.00,609.26 572.10,609.92 575.00,610.38 C577.20,610.74 579.00,611.43 579.00,611.92 C579.00,612.41 579.84,612.59 580.87,612.32 C582.83,611.81 593.41,620.25 592.26,621.41 C591.93,621.73 592.08,622.00 592.58,622.00 C594.08,622.00 594.27,631.87 592.80,633.34 C587.85,638.27 573.87,641.85 566.91,639.97 C564.65,639.37 561.61,638.96 560.15,639.08 C558.69,639.19 556.78,638.98 555.90,638.59 C555.02,638.21 553.89,638.01 553.40,638.15 C551.60,638.66 545.00,636.88 545.00,635.90 C545.00,635.34 544.55,635.16 544.00,635.50 C543.45,635.84 543.00,635.57 543.00,634.89 C543.00,634.22 542.75,633.92 542.44,634.23 C542.13,634.54 540.77,633.67 539.41,632.31 C537.46,630.37 536.91,628.74 536.81,624.67 C536.67,618.63 537.77,613.00 539.08,613.00 C539.59,613.00 540.01,612.21 540.03,611.25 C540.05,610.29 540.72,608.63 541.53,607.56 C542.34,606.49 543.00,605.31 543.00,604.94 C543.00,604.68 541.37,604.55 539.01,604.57 C540.03,604.42 540.86,604.25 541.35,604.06 C543.58,603.21 545.71,599.71 545.20,597.75 C545.09,597.34 545.50,597.00 546.11,597.00 C546.72,597.00 546.95,596.33 546.64,595.50 C546.32,594.67 546.40,594.00 546.82,594.00 C547.23,594.00 547.64,593.19 547.71,592.19 C547.79,591.19 548.58,587.54 549.48,584.07 C550.38,580.59 550.88,577.13 550.59,576.38 C550.30,575.62 550.53,575.00 551.11,575.00 C551.68,575.00 552.03,573.53 551.87,571.74 C551.72,569.94 551.91,567.95 552.30,567.32 C553.29,565.72 552.75,555.58 551.73,554.16 C552.28,554.22 552.59,554.26 552.62,554.28 ZM 675.18 459.48 C683.56,461.80 695.18,459.86 700.21,455.31 C701.20,454.42 702.00,452.30 702.00,450.60 C701.98,439.73 685.20,430.25 667.67,431.20 C654.21,431.94 650.87,434.97 654.35,443.28 C657.47,450.73 665.15,456.70 675.18,459.48 ZM 772.45 371.64 C780.25,375.16 789.00,369.02 789.00,360.01 C789.00,356.28 785.67,349.43 783.23,348.12 C776.28,344.41 768.26,346.62 764.91,353.17 C761.50,359.86 764.93,368.25 772.45,371.64 ZM 604.71 372.40 C606.80,373.77 609.17,374.88 610.00,374.87 C614.65,374.82 622.00,367.05 622.00,362.17 C622.00,360.77 621.08,357.73 619.96,355.41 C615.51,346.23 602.76,345.67 598.58,354.48 C595.38,361.22 597.62,367.76 604.71,372.40 ZM 585.32 399.81 C586.52,400.39 588.29,400.90 589.25,400.93 C591.94,401.04 595.00,397.35 595.00,394.00 C595.00,386.60 585.48,384.50 581.94,391.11 C580.51,393.79 582.28,398.34 585.32,399.81 ZM 752.75 394.88 C756.22,397.47 757.11,397.48 759.81,394.96 C762.54,392.42 762.62,388.62 760.00,386.00 C757.42,383.42 755.19,383.47 752.31,386.17 C749.21,389.09 749.38,392.37 752.75,394.88 ZM 678.75 416.34 C681.36,417.14 684.67,417.84 686.10,417.90 C688.91,418.01 695.00,415.37 695.00,414.04 C695.00,413.59 691.51,413.28 687.25,413.35 C682.99,413.42 678.26,413.14 676.75,412.72 C674.66,412.14 674.00,412.31 674.00,413.42 C674.00,414.29 675.91,415.47 678.75,416.34 ZM 857.62 230.76 C859.05,252.37 859.33,307.31 858.05,355.96 C857.94,360.04 857.82,364.34 857.71,368.72 C858.77,311.60 858.93,252.66 857.62,230.76 ZM 787.07 378.13 C788.27,380.38 789.35,380.49 790.96,378.54 C792.44,376.77 791.51,375.00 789.11,375.00 C786.57,375.00 785.92,375.99 787.07,378.13 ZM 619.12 380.11 C621.14,381.41 623.43,380.74 623.81,378.74 C624.06,377.46 623.48,377.00 621.63,377.00 C618.66,377.00 617.16,378.85 619.12,380.11 ZM 679.39 603.71 C668.21,603.58 652.20,603.50 634.57,603.50 C623.21,603.50 613.88,603.50 606.21,603.52 C609.52,603.49 613.16,603.45 617.16,603.40 C641.55,603.12 669.38,603.26 679.00,603.70 C679.13,603.70 679.26,603.71 679.39,603.71 ZM 529.74 605.04 C511.68,606.15 496.04,607.43 482.56,608.94 C499.72,606.86 517.91,605.29 529.74,605.04 ZM 519.06 159.20 C528.03,158.38 536.84,157.63 544.50,157.05 C585.30,153.96 630.97,152.70 665.63,153.66 C639.38,153.07 607.09,153.50 577.00,155.04 C559.98,155.91 538.91,157.46 519.06,159.20 ZM 713.90 157.17 C719.03,157.98 723.57,158.96 728.00,160.16 C735.74,162.25 746.38,165.43 757.98,169.05 C737.41,162.67 723.76,159.01 713.90,157.17 ZM 816.57 616.04 C803.64,613.09 786.23,610.47 764.00,608.09 C761.77,607.85 759.74,607.64 757.91,607.45 C764.24,608.00 771.81,608.90 785.00,610.54 C796.98,612.02 807.65,613.90 816.57,616.04 ZM 854.00 478.37 C854.00,478.48 854.00,478.60 854.00,478.72 C853.99,484.61 853.28,491.15 852.08,497.49 C852.40,495.64 852.67,493.80 852.87,492.00 C853.26,488.51 853.64,483.90 854.00,478.37 ZM 825.78 191.83 C829.18,193.12 831.78,194.18 833.34,194.93 C837.64,196.98 841.21,199.14 844.20,201.57 C839.85,198.21 833.98,195.16 825.78,191.83 ZM 410.09 462.90 C410.06,462.76 410.02,462.63 409.98,462.50 C409.50,460.94 409.43,458.72 409.77,456.59 C409.69,458.32 409.74,459.55 410.09,462.90 ZM 548.68 553.89 C544.69,553.69 539.16,553.28 533.61,552.79 C534.66,552.87 535.70,552.95 536.72,553.01 C541.46,553.33 545.76,553.65 548.68,553.89 ZM 415.21 629.66 C414.97,632.71 417.85,635.90 423.77,638.85 C417.66,635.80 414.84,632.71 415.21,629.66 ZM 420.41 623.51 C423.02,621.89 426.60,620.30 431.13,618.77 C426.91,620.24 423.36,621.82 420.41,623.51 ZM 398.14 254.39 C398.14,215.61 398.95,200.31 400.83,199.07 C398.96,200.30 398.15,215.58 398.14,254.39 ZM 855.61 218.67 C855.98,219.80 856.33,220.99 856.65,222.22 C856.71,222.43 856.76,222.68 856.82,222.96 C856.80,222.88 856.78,222.80 856.76,222.73 C856.39,221.30 856.01,219.95 855.61,218.67 ZM 411.20 474.08 C411.13,473.44 411.07,472.71 411.03,471.91 C411.10,472.76 411.16,473.51 411.20,474.08 Z"
            fill="rgba(21,18,19,1)" />
        <path
            d="M 552.62 554.28 C552.50,554.16 545.34,553.59 536.72,553.01 C528.09,552.44 517.51,551.30 513.19,550.48 C498.13,547.62 478.44,539.65 451.00,525.32 C420.24,509.24 414.47,504.09 406.51,485.50 C404.56,480.96 403.49,470.15 404.79,468.22 C406.51,465.67 408.62,468.11 409.85,474.03 C410.89,479.09 412.43,481.77 412.64,479.17 C412.74,479.30 412.86,479.41 413.00,479.50 C413.57,479.85 413.77,480.56 413.46,481.07 C413.14,481.58 413.39,482.00 414.00,482.00 C414.61,482.00 414.86,482.42 414.54,482.93 C414.23,483.44 414.43,484.15 415.00,484.50 C415.57,484.85 415.77,485.56 415.46,486.07 C415.14,486.58 415.43,487.00 416.11,487.00 C416.78,487.00 417.07,487.26 416.75,487.58 C416.43,487.91 416.91,489.05 417.83,490.12 C418.75,491.19 419.53,492.39 419.56,492.78 C419.66,493.90 429.70,504.15 431.91,505.39 C479.53,532.13 503.09,541.71 526.77,543.98 C542.24,545.46 587.54,546.99 616.00,546.99 C675.68,546.99 737.23,542.68 794.45,534.49 C803.77,533.15 811.55,532.21 811.73,532.39 C812.57,533.24 776.13,538.64 752.81,541.13 C746.38,541.82 741.36,542.77 741.65,543.25 C741.95,543.74 739.38,543.84 735.85,543.49 C731.54,543.05 729.96,543.17 730.92,543.84 C731.97,544.57 731.06,544.99 727.42,545.47 C718.40,546.64 717.81,546.86 719.23,548.57 C720.25,549.80 722.13,549.98 729.79,549.53 C724.05,550.12 719.14,550.63 716.00,550.96 C714.40,551.13 712.71,551.29 710.93,551.44 C711.45,551.38 711.98,551.33 712.50,551.28 C717.79,550.79 721.24,549.01 716.95,548.98 C715.00,548.97 714.81,548.77 716.00,548.00 C717.87,546.79 716.00,546.72 707.15,547.64 C702.17,548.16 701.00,548.62 701.00,550.06 C701.00,550.85 701.37,551.68 701.88,552.12 C679.75,553.57 646.89,554.30 600.67,554.40 C574.36,554.45 552.74,554.40 552.62,554.28 ZM 406.17 375.19 C406.04,374.80 406.00,374.17 406.00,373.23 C406.00,368.36 404.83,364.00 403.53,364.00 C402.86,364.00 401.53,363.13 400.57,362.08 C398.96,360.30 398.79,354.90 398.30,291.33 C397.79,224.90 398.46,200.64 400.83,199.07 C401.31,198.76 402.52,195.84 403.54,192.58 C404.04,190.98 404.74,189.40 405.62,187.87 C404.70,189.48 403.97,191.16 403.46,192.87 C402.45,196.24 401.33,199.00 400.98,199.00 C400.63,199.00 400.55,200.41 400.81,202.14 C401.11,204.18 400.90,205.06 400.22,204.64 C399.53,204.21 399.41,204.88 399.87,206.59 C400.25,208.03 400.19,213.09 399.74,217.85 C398.92,226.38 399.48,249.44 400.95,268.00 L 401.70 277.50 L 402.06 269.50 C402.36,262.85 402.51,263.95 403.00,276.00 C403.40,285.97 403.65,278.48 403.80,252.00 C404.02,212.39 404.68,203.77 408.11,196.01 C410.85,189.79 422.00,178.52 422.00,181.96 C422.00,182.53 421.47,183.00 420.82,183.00 C420.17,183.00 417.50,185.22 414.88,187.93 C409.86,193.14 408.58,196.25 407.04,207.00 C406.06,213.85 405.31,366.49 406.17,375.19 ZM 850.49 429.75 C850.05,442.82 849.39,451.00 848.78,451.00 C848.17,451.00 848.00,449.31 848.35,446.75 C848.67,444.41 849.27,433.27 849.70,422.00 C850.12,410.73 850.63,403.08 850.83,405.00 C851.03,406.92 850.88,418.06 850.49,429.75 ZM 847.56 479.85 C846.70,486.43 845.54,492.87 844.97,494.16 L 843.94 496.50 L 844.49 494.00 C844.79,492.62 845.51,486.77 846.09,481.00 C846.68,475.23 847.44,468.48 847.79,466.00 C848.36,461.92 848.45,461.80 848.77,464.69 C848.96,466.44 848.42,473.26 847.56,479.85 ZM 767.45 545.64 C759.85,546.42 749.63,547.48 740.05,548.47 C741.08,548.28 741.81,548.10 742.11,547.94 C743.08,547.42 748.51,546.80 754.19,546.55 C758.13,546.38 762.65,546.07 767.45,545.64 ZM 412.60 477.84 C412.49,477.34 412.27,477.00 412.02,477.00 C411.66,477.00 411.29,475.76 411.21,474.25 C411.15,473.20 410.99,471.32 410.80,469.44 C410.97,471.05 411.11,472.45 411.15,473.00 C411.22,473.83 411.70,475.04 412.22,475.71 C412.73,476.35 412.89,477.29 412.60,477.84 ZM 416.44 375.12 C415.45,374.76 414.37,374.59 413.20,374.59 C411.76,374.59 410.12,374.77 408.94,375.03 C408.96,375.02 408.99,375.00 409.02,374.99 C411.35,373.74 413.98,373.87 416.44,375.12 ZM 813.07 539.45 C805.23,541.14 795.47,542.59 783.19,543.99 C794.19,542.66 805.12,541.02 813.07,539.45 ZM 845.30 519.44 C844.37,521.34 843.41,522.99 842.45,524.30 C841.33,525.82 840.09,527.21 838.67,528.51 C841.30,526.03 843.45,523.06 845.30,519.44 ZM 852.87 492.00 C852.40,496.22 851.56,500.66 850.45,504.92 C851.53,500.53 852.48,495.55 852.87,492.00 ZM 423.58 385.10 C423.62,383.91 423.28,383.00 422.61,381.59 C422.58,381.52 422.54,381.45 422.51,381.39 C422.64,381.62 422.76,381.85 422.87,382.08 C423.39,383.12 423.64,383.96 423.58,385.10 ZM 422.19 390.66 C422.21,390.59 422.24,390.51 422.26,390.44 C422.24,390.51 422.22,390.58 422.19,390.65 C422.19,390.65 422.19,390.66 422.19,390.66 Z"
            fill="rgba(184,112,6,1)" />
        <path
            d="M 643.50 612.77 C647.35,613.24 656.22,613.70 663.21,613.78 C675.95,613.94 682.17,612.81 685.95,609.65 C686.80,608.94 689.41,607.75 691.75,607.02 C693.34,606.52 694.73,605.93 695.46,605.48 C695.33,606.03 695.12,606.71 694.85,607.47 C694.67,607.19 694.35,607.00 694.00,607.00 C693.45,607.00 693.00,607.45 693.00,608.00 C693.00,608.55 693.45,609.00 694.00,609.00 C694.08,609.00 694.16,608.99 694.24,608.97 C694.18,609.10 694.13,609.22 694.07,609.35 C691.04,616.00 691.30,622.29 694.75,625.86 C696.26,627.42 698.02,628.52 698.66,628.30 C699.30,628.08 700.41,628.52 701.13,629.30 C701.85,630.07 703.24,630.49 704.22,630.23 C705.20,629.98 706.00,630.26 706.00,630.85 C706.00,631.45 706.67,631.68 707.50,631.36 C708.33,631.04 709.00,631.33 709.00,632.00 C709.00,632.78 709.85,633.00 711.35,632.63 C712.64,632.30 714.03,632.36 714.42,632.76 C715.27,633.60 717.67,633.75 733.00,633.86 C741.05,633.92 745.48,633.80 748.53,633.02 C745.64,633.82 741.77,634.03 735.00,634.00 C728.34,633.98 725.95,634.27 727.00,634.97 C727.83,635.52 730.08,636.04 732.00,636.12 L 735.50 636.26 L 732.00 637.00 C730.08,637.41 728.95,637.82 729.50,637.92 C730.05,638.01 728.70,638.71 726.50,639.46 C717.85,642.40 678.01,644.51 602.01,646.04 C542.97,647.23 537.85,646.99 522.19,642.28 C512.96,639.51 509.98,637.13 510.03,632.56 C510.08,628.18 511.83,626.42 518.00,624.59 C523.60,622.93 530.89,618.73 532.30,616.35 C532.74,615.61 533.78,615.00 534.61,615.00 C535.44,615.00 535.84,614.55 535.49,613.99 C534.72,612.74 538.47,607.80 539.45,608.78 C539.78,609.11 540.63,608.55 541.42,607.72 C540.66,608.79 540.05,610.33 540.03,611.25 C540.01,612.21 539.59,613.00 539.08,613.00 C537.77,613.00 536.67,618.63 536.81,624.67 C536.91,628.74 537.46,630.37 539.41,632.31 C540.77,633.67 542.13,634.54 542.44,634.23 C542.75,633.92 543.00,634.22 543.00,634.89 C543.00,635.57 543.45,635.84 544.00,635.50 C544.55,635.16 545.00,635.34 545.00,635.90 C545.00,636.88 551.60,638.66 553.40,638.15 C553.89,638.01 555.02,638.21 555.90,638.59 C556.78,638.98 558.69,639.19 560.15,639.08 C561.61,638.96 564.65,639.37 566.91,639.97 C573.87,641.85 587.85,638.27 592.80,633.34 C594.27,631.87 594.08,622.00 592.58,622.00 C592.08,622.00 591.93,621.73 592.26,621.41 C593.41,620.25 582.83,611.81 580.87,612.32 C579.84,612.59 579.00,612.41 579.00,611.92 C579.00,611.43 577.20,610.74 575.00,610.38 C574.17,610.25 573.49,610.10 572.94,609.93 C573.19,609.96 573.46,609.97 573.75,609.96 L 576.50 609.93 L 574.11 608.61 C572.61,607.77 572.14,607.03 572.84,606.60 C573.46,606.22 574.76,606.34 575.74,606.86 C576.71,607.38 580.43,607.58 584.01,607.30 C589.00,606.91 591.66,607.25 595.50,608.76 C598.25,609.84 603.49,611.31 607.14,612.02 C613.37,613.24 614.02,613.19 617.90,611.17 C621.86,609.11 622.32,609.08 629.26,610.46 C633.24,611.26 639.65,612.29 643.50,612.77 ZM 757.75 623.60 C758.17,625.34 758.58,625.70 759.11,624.85 C759.71,623.92 759.97,624.37 759.98,626.31 C760.00,628.45 759.58,629.05 758.24,628.83 C757.27,628.66 755.13,629.47 753.49,630.62 C752.85,631.06 752.24,631.45 751.62,631.79 C752.67,631.18 753.62,630.39 754.69,629.39 C757.47,626.77 758.07,625.76 757.75,623.60 ZM 571.04 608.38 C571.01,608.26 571.00,608.13 571.00,607.99 C571.00,607.33 571.00,606.76 571.20,606.28 C572.03,604.27 576.36,603.71 599.01,603.56 C576.48,604.02 573.23,604.38 572.25,605.70 C571.44,606.79 571.04,607.69 571.04,608.38 ZM 695.58 604.75 C693.91,604.34 687.40,603.98 678.20,603.70 C688.73,603.82 695.31,603.98 695.49,604.15 C695.57,604.24 695.60,604.45 695.58,604.75 ZM 743.15 607.47 C743.43,608.14 744.91,609.17 747.25,610.63 C751.78,613.45 755.17,616.98 756.76,620.39 C755.15,617.03 751.76,613.50 747.38,610.75 C744.95,609.23 743.42,608.15 743.15,607.47 Z"
            fill="rgba(190,186,205,1)" />
        <path
            d="M 567.12 659.02 C488.80,655.20 443.86,648.88 423.77,638.85 C413.74,633.84 412.43,628.16 420.26,623.60 C436.55,614.12 471.57,608.38 535.75,604.68 C539.74,604.45 543.00,604.57 543.00,604.94 C543.00,606.36 540.13,609.46 539.45,608.78 C538.47,607.80 534.72,612.74 535.49,613.99 C535.84,614.55 535.44,615.00 534.61,615.00 C533.78,615.00 532.74,615.61 532.30,616.35 C530.89,618.73 523.60,622.93 518.00,624.59 C511.83,626.42 510.08,628.18 510.03,632.56 C509.98,637.13 512.96,639.51 522.19,642.28 C537.85,646.99 542.97,647.23 602.01,646.04 C678.01,644.51 717.85,642.40 726.50,639.46 C728.70,638.71 730.05,638.01 729.50,637.92 C728.95,637.82 730.08,637.41 732.00,637.00 L 735.50 636.26 L 732.00 636.12 C730.08,636.04 727.83,635.52 727.00,634.97 C725.95,634.27 728.34,633.98 735.00,634.00 C746.19,634.04 749.46,633.44 753.49,630.62 C755.13,629.47 757.27,628.66 758.24,628.83 C759.58,629.05 760.00,628.45 759.98,626.31 C759.97,624.37 759.71,623.92 759.11,624.85 C758.51,625.81 758.06,625.22 757.59,622.85 C756.77,618.74 752.88,614.14 747.25,610.63 C739.61,605.86 741.08,605.63 764.00,608.09 C812.92,613.33 838.50,619.73 844.45,628.23 C849.31,635.17 832.30,643.64 803.00,648.88 C789.00,651.39 760.76,654.61 740.50,656.02 C732.25,656.59 719.88,657.53 713.00,658.10 C697.32,659.41 589.12,660.09 567.12,659.02 ZM 643.50 612.77 C639.65,612.29 633.24,611.26 629.26,610.46 C622.32,609.08 621.86,609.11 617.90,611.17 C614.02,613.19 613.37,613.24 607.14,612.02 C603.49,611.31 598.25,609.84 595.50,608.76 C591.66,607.25 589.00,606.91 584.01,607.30 C580.43,607.58 576.71,607.38 575.74,606.86 C574.76,606.34 573.46,606.22 572.84,606.60 C572.14,607.03 572.61,607.77 574.11,608.61 L 576.50 609.93 L 573.75 609.96 C570.77,610.00 570.21,608.44 572.25,605.70 C573.36,604.20 577.38,603.95 609.00,603.37 C645.09,602.70 696.00,603.63 696.00,604.95 C696.00,605.35 694.09,606.28 691.75,607.02 C689.41,607.75 686.80,608.94 685.95,609.65 C682.17,612.81 675.95,613.94 663.21,613.78 C656.22,613.70 647.35,613.24 643.50,612.77 ZM 693.00 608.00 C693.00,607.45 693.45,607.00 694.00,607.00 C694.55,607.00 695.00,607.45 695.00,608.00 C695.00,608.55 694.55,609.00 694.00,609.00 C693.45,609.00 693.00,608.55 693.00,608.00 Z"
            fill="rgba(215,211,223,1)" />
        <path
            d="M 719.23 548.57 C717.81,546.86 718.40,546.64 727.42,545.47 C731.06,544.99 731.97,544.57 730.92,543.84 C729.96,543.17 731.54,543.05 735.85,543.49 C739.38,543.84 741.95,543.74 741.65,543.25 C741.36,542.77 746.38,541.82 752.81,541.13 C776.13,538.64 812.57,533.24 811.73,532.39 C811.55,532.21 803.77,533.15 794.45,534.49 C788.96,535.27 783.44,536.02 777.88,536.74 C784.04,535.92 790.00,535.00 800.00,533.42 C812.94,531.37 825.00,527.67 825.00,525.76 C825.00,525.34 825.45,525.00 826.00,525.00 C827.24,525.00 835.00,517.33 835.00,516.11 C835.00,515.62 835.70,514.94 836.56,514.61 C837.42,514.28 837.85,513.56 837.50,513.01 C837.16,512.45 837.39,512.00 838.00,512.00 C838.61,512.00 838.84,511.55 838.50,511.00 C838.16,510.45 838.39,510.00 839.00,510.00 C839.61,510.00 839.84,509.55 839.50,509.00 C839.16,508.45 839.39,508.00 840.00,508.00 C840.61,508.00 840.86,507.58 840.54,507.07 C840.23,506.56 840.43,505.85 841.00,505.50 C841.57,505.15 841.77,504.44 841.46,503.93 C841.14,503.42 841.41,503.00 842.05,503.00 C842.69,503.00 842.97,502.37 842.68,501.60 C842.38,500.83 842.42,499.91 842.76,499.57 C843.10,499.23 843.52,497.95 843.69,496.72 C843.86,495.50 844.46,492.29 845.02,489.60 C845.13,489.11 845.23,488.55 845.33,487.91 C844.98,490.87 844.66,493.20 844.49,494.00 L 843.94 496.50 L 844.97 494.16 C845.54,492.87 846.70,486.43 847.56,479.85 C848.42,473.26 848.96,466.44 848.77,464.69 C848.45,461.80 848.36,461.92 847.79,466.00 C847.66,466.91 847.48,468.41 847.26,470.22 C847.77,464.02 848.20,457.21 848.47,450.81 C848.56,450.94 848.66,451.00 848.78,451.00 C849.39,451.00 850.05,442.82 850.49,429.75 C850.88,418.06 851.03,406.92 850.83,405.00 C850.63,403.08 850.12,410.73 849.70,422.00 C849.47,427.93 849.20,433.83 848.94,438.42 C849.26,430.16 849.70,419.14 850.09,409.50 C851.59,372.84 852.12,343.19 852.32,284.00 C852.48,237.99 852.31,231.78 850.76,225.74 C847.24,212.05 843.05,206.58 831.69,200.85 C825.08,197.51 776.14,181.08 771.75,180.72 C770.24,180.60 769.00,180.14 769.00,179.71 C769.00,179.27 768.44,179.02 767.75,179.14 C765.56,179.55 760.00,177.88 760.00,176.81 C760.00,176.25 759.33,176.05 758.50,176.36 C757.67,176.68 757.00,176.45 757.00,175.86 C757.00,175.27 756.37,175.03 755.59,175.33 C753.79,176.02 747.00,173.96 747.00,172.73 C747.00,172.21 746.33,172.05 745.50,172.36 C744.67,172.68 744.00,172.45 744.00,171.86 C744.00,171.27 743.33,171.05 742.50,171.36 C741.67,171.68 741.00,171.58 741.00,171.14 C741.00,170.69 739.61,170.33 737.91,170.33 C736.21,170.33 734.50,169.81 734.11,169.18 C733.72,168.55 731.85,167.83 729.95,167.58 C728.05,167.34 726.50,167.06 726.50,166.97 C726.50,166.88 724.50,166.62 722.06,166.40 C719.62,166.19 717.33,165.54 716.98,164.97 C716.63,164.40 715.59,164.22 714.67,164.57 C713.72,164.94 713.00,164.73 713.00,164.08 C713.00,163.43 711.42,162.98 709.25,163.02 C707.19,163.07 702.35,162.84 698.50,162.53 C660.30,159.42 589.39,160.31 540.50,164.50 C531.15,165.31 520.12,166.22 516.00,166.53 C511.88,166.84 500.62,168.02 491.00,169.14 C481.38,170.26 471.92,171.34 470.00,171.53 C468.08,171.72 465.15,172.12 463.50,172.42 C461.85,172.72 458.70,173.23 456.50,173.55 C447.00,174.94 432.52,178.21 427.44,180.11 C416.48,184.21 410.13,191.50 407.69,202.90 C409.01,195.34 410.56,192.41 414.88,187.93 C417.50,185.22 420.17,183.00 420.82,183.00 C421.47,183.00 422.00,182.53 422.00,181.96 C422.00,178.52 410.85,189.79 408.11,196.01 C404.68,203.77 404.02,212.39 403.80,252.00 C403.65,278.48 403.40,285.97 403.00,276.00 C402.51,263.95 402.36,262.85 402.06,269.50 L 401.70 277.50 L 400.95 268.00 C399.48,249.44 398.92,226.38 399.74,217.85 C400.19,213.09 400.25,208.03 399.87,206.59 C399.41,204.88 399.53,204.21 400.22,204.64 C400.90,205.06 401.11,204.18 400.81,202.14 C400.55,200.41 400.63,199.00 400.98,199.00 C401.33,199.00 402.45,196.24 403.46,192.87 C405.59,185.74 411.38,179.37 419.41,175.29 C424.57,172.68 439.68,168.49 447.12,167.61 C449.53,167.33 457.58,166.19 465.00,165.07 C487.71,161.67 541.29,156.87 577.00,155.04 C628.99,152.38 687.56,153.03 710.18,156.53 C725.42,158.89 750.53,166.20 801.19,183.02 C843.79,197.17 851.63,202.77 856.76,222.73 C860.68,237.96 857.63,449.18 852.87,492.00 C852.29,497.23 850.51,505.55 848.90,510.50 C843.86,526.06 836.96,532.85 821.50,537.47 C810.07,540.89 774.56,545.68 754.19,546.55 C748.51,546.80 743.08,547.42 742.11,547.94 C741.14,548.46 735.88,549.16 730.42,549.49 C722.23,549.99 720.28,549.83 719.23,548.57 ZM 675.18 459.48 C665.15,456.70 657.47,450.73 654.35,443.28 C650.87,434.97 654.21,431.94 667.67,431.20 C685.20,430.25 701.98,439.73 702.00,450.60 C702.00,452.30 701.20,454.42 700.21,455.31 C695.18,459.86 683.56,461.80 675.18,459.48 ZM 702.25 552.36 C701.56,552.07 701.00,551.03 701.00,550.06 C701.00,548.62 702.17,548.16 707.15,547.64 C716.00,546.72 717.87,546.79 716.00,548.00 C714.81,548.77 715.00,548.97 716.95,548.98 C721.24,549.01 717.79,550.79 712.50,551.28 C709.75,551.53 706.60,552.00 705.50,552.32 C704.40,552.63 702.94,552.65 702.25,552.36 ZM 768.28 537.93 C718.70,543.88 666.68,546.99 616.00,546.99 C610.16,546.99 603.62,546.92 596.77,546.81 C652.76,547.49 706.37,544.90 759.00,538.99 C762.54,538.59 765.57,538.24 768.28,537.93 ZM 497.01 537.16 C489.16,534.40 480.53,530.72 470.55,525.88 C471.19,526.18 471.84,526.48 472.50,526.78 C482.30,531.27 489.98,534.63 497.01,537.16 ZM 531.90 544.40 C529.95,544.26 528.23,544.12 526.77,543.98 C521.26,543.45 515.76,542.53 509.96,541.08 C516.55,542.66 523.42,543.67 531.90,544.40 ZM 405.89 296.13 C406.06,259.13 406.43,220.86 406.86,209.88 C406.43,221.57 406.06,259.51 405.89,296.13 Z"
            fill="rgba(207,139,14,1)" />
        <path
            d="M 787.73 185.34 C804.02,190.56 827.28,198.62 831.69,200.85 C843.05,206.58 847.24,212.05 850.76,225.74 C852.04,230.73 852.38,235.84 852.37,263.47 C852.35,225.56 851.45,223.01 846.13,218.25 C842.26,214.79 840.95,214.42 838.02,215.99 C836.70,216.69 835.10,216.49 832.34,215.27 C827.13,212.97 794.11,212.45 747.44,213.92 C700.65,215.41 663.11,215.96 670.50,215.07 C676.00,214.40 676.17,214.31 672.50,214.01 C668.65,213.69 668.70,213.65 674.00,213.00 L 679.50 212.33 L 674.00 212.09 C668.18,211.85 664.01,210.71 665.57,209.80 C666.08,209.50 673.70,208.95 682.50,208.58 C691.30,208.20 705.47,207.47 714.00,206.94 C726.03,206.20 813.72,202.00 817.25,202.00 C817.66,202.00 818.00,201.61 818.00,201.13 C818.00,200.18 815.14,199.35 798.19,195.42 C791.96,193.98 787.08,192.58 787.34,192.32 C787.60,192.07 789.54,192.33 791.66,192.92 C797.36,194.51 798.90,194.32 798.32,192.12 C797.96,190.74 796.57,190.06 793.16,189.60 C790.60,189.25 787.83,188.52 787.00,187.98 C785.67,187.11 785.67,186.88 787.00,185.91 C787.34,185.66 787.58,185.47 787.73,185.34 ZM 772.45 371.64 C764.93,368.25 761.50,359.86 764.91,353.17 C768.26,346.62 776.28,344.41 783.23,348.12 C785.67,349.43 789.00,356.28 789.00,360.01 C789.00,369.02 780.25,375.16 772.45,371.64 ZM 604.71 372.40 C597.62,367.76 595.38,361.22 598.58,354.48 C602.76,345.67 615.51,346.23 619.96,355.41 C621.08,357.73 622.00,360.77 622.00,362.17 C622.00,367.05 614.65,374.82 610.00,374.87 C609.17,374.88 606.80,373.77 604.71,372.40 ZM 752.75 394.88 C749.38,392.37 749.21,389.09 752.31,386.17 C755.19,383.47 757.42,383.42 760.00,386.00 C762.62,388.62 762.54,392.42 759.81,394.96 C757.11,397.48 756.22,397.47 752.75,394.88 ZM 787.07 378.13 C785.92,375.99 786.57,375.00 789.11,375.00 C791.51,375.00 792.44,376.77 790.96,378.54 C789.35,380.49 788.27,380.38 787.07,378.13 ZM 619.12 380.11 C617.16,378.85 618.66,377.00 621.63,377.00 C623.48,377.00 624.06,377.46 623.81,378.74 C623.43,380.74 621.14,381.41 619.12,380.11 ZM 781.63 183.42 C783.37,183.96 785.29,184.56 787.31,185.21 C787.14,185.26 786.92,185.32 786.67,185.40 C785.66,185.73 783.71,185.71 782.33,185.37 C780.41,184.89 780.13,184.51 781.15,183.80 C781.39,183.64 781.55,183.51 781.63,183.42 ZM 775.46 181.59 C777.01,182.02 778.95,182.60 781.16,183.28 C780.93,183.32 780.63,183.40 780.25,183.50 C777.19,184.36 773.20,183.12 775.12,181.91 C775.29,181.80 775.41,181.69 775.46,181.59 ZM 769.00 179.71 C769.00,180.12 770.13,180.56 771.55,180.70 C771.14,180.71 770.71,180.71 770.25,180.73 C769.56,180.76 769.00,180.36 769.00,179.85 C769.00,179.33 768.44,179.02 767.75,179.14 C768.44,179.02 769.00,179.27 769.00,179.71 ZM 852.08 324.74 C851.78,359.04 851.20,382.35 850.09,409.50 C851.19,382.65 851.77,358.89 852.08,324.74 Z"
            fill="rgba(253,253,241,1)" />
        <path
            d="M 560.00 545.90 C541.53,545.22 529.23,544.51 518.79,542.84 C519.19,542.85 519.59,542.85 520.00,542.85 C523.78,542.86 523.11,542.57 515.77,541.02 C505.43,538.84 493.26,534.81 487.00,531.49 C480.29,527.94 465.99,520.84 461.96,519.06 C455.79,516.34 436.86,503.69 431.28,498.56 C422.51,490.50 416.00,475.15 416.00,462.55 C416.00,459.22 415.40,457.80 413.00,455.50 L 410.00 452.63 L 409.82 455.56 C409.78,456.31 409.74,456.92 409.74,457.53 C409.74,456.92 409.78,456.31 409.82,455.55 L 410.00 452.61 L 413.25 455.62 C417.29,459.36 432.71,469.53 435.75,470.45 C436.99,470.83 438.00,471.47 438.00,471.88 C438.00,472.30 440.93,473.22 444.51,473.93 C448.09,474.64 451.27,475.62 451.57,476.11 C452.32,477.33 462.74,477.24 463.50,476.00 C463.84,475.45 464.98,475.00 466.04,475.00 C467.10,475.00 469.38,473.74 471.11,472.19 C473.69,469.88 474.35,468.42 474.77,464.03 C475.41,457.35 473.37,453.14 468.02,450.13 C464.69,448.26 462.87,448.02 453.85,448.24 C444.16,448.48 443.12,448.31 437.50,445.56 C433.77,443.74 429.04,440.12 425.00,436.00 C417.26,428.12 415.61,425.99 412.43,419.80 C409.84,414.76 409.98,413.29 413.50,408.50 C416.71,404.15 419.95,397.49 422.19,390.65 C423.86,385.56 423.97,384.28 422.87,382.08 C419.91,376.11 414.75,373.07 410.33,374.44 L 411.94 373.70 L 412.03 310.60 C412.14,239.35 413.13,200.01 414.94,195.50 C416.79,190.88 418.99,189.00 422.56,189.00 C428.29,189.00 474.70,206.99 490.00,215.15 C499.31,220.11 504.23,224.79 507.08,231.39 C509.20,236.33 509.25,237.28 508.63,259.50 C507.49,300.17 507.75,491.49 508.96,503.00 C510.61,518.64 513.96,527.80 520.16,533.64 C523.71,536.99 530.87,541.08 535.00,542.13 C536.61,542.54 535.20,542.85 531.00,543.00 L 524.50 543.24 L 530.00 544.12 C533.03,544.60 545.85,545.38 558.50,545.84 C589.34,546.98 619.06,547.21 648.11,546.50 C619.35,547.21 590.04,547.01 560.00,545.90 ZM 462.16 521.82 C478.35,529.85 495.29,536.85 507.50,540.42 C507.91,540.54 508.31,540.66 508.71,540.77 C498.06,538.09 487.90,533.84 472.50,526.78 C468.95,525.15 465.69,523.60 462.16,521.82 ZM 405.91 291.69 C406.11,251.07 406.56,210.21 407.06,206.50 C406.57,210.11 406.12,251.02 405.91,291.69 ZM 408.61 375.19 C407.55,375.69 406.53,375.86 406.24,375.58 C406.24,375.57 406.24,375.57 406.23,375.56 C406.53,375.77 407.51,375.61 408.61,375.19 ZM 424.74 498.83 C427.59,501.76 430.78,504.76 431.92,505.39 C432.40,505.66 433.91,506.51 436.01,507.69 C434.70,506.96 433.33,506.19 431.91,505.39 C430.78,504.76 427.59,501.75 424.74,498.83 Z"
            fill="rgba(244,188,40,1)" />
        <path
            d="M 578.32 441.79 C574.41,442.96 559.08,443.35 556.00,442.36 C552.23,441.15 545.00,437.59 545.00,436.95 C545.00,436.55 544.05,435.99 542.90,435.68 C541.74,435.38 541.07,434.70 541.39,434.17 C541.72,433.64 541.32,432.95 540.49,432.64 C539.48,432.25 539.00,430.63 539.00,427.57 C539.00,418.34 549.95,411.35 563.00,412.25 C571.98,412.88 584.64,418.35 587.74,422.95 C591.26,428.17 590.77,432.58 586.18,436.94 C584.08,438.94 580.54,441.12 578.32,441.79 ZM 441.56 506.41 C434.47,501.84 432.75,501.16 431.53,501.63 C430.67,501.96 429.31,501.67 428.49,500.99 C427.65,500.30 427.00,500.19 427.00,500.76 C427.00,500.89 427.03,501.03 427.09,501.18 C423.59,497.77 419.63,493.49 419.56,492.78 C419.53,492.39 418.75,491.19 417.83,490.12 C416.91,489.05 416.43,487.91 416.75,487.58 C417.07,487.26 416.78,487.00 416.11,487.00 C415.43,487.00 415.14,486.58 415.46,486.07 C415.77,485.56 415.57,484.85 415.00,484.50 C414.43,484.15 414.23,483.44 414.54,482.93 C414.86,482.42 414.61,482.00 414.00,482.00 C413.39,482.00 413.14,481.58 413.46,481.07 C413.77,480.56 413.57,479.85 413.00,479.50 C412.43,479.15 412.24,478.42 412.57,477.89 C412.90,477.35 412.74,476.37 412.22,475.71 C411.70,475.04 411.22,473.83 411.15,473.00 C411.09,472.17 410.81,469.48 410.54,467.00 C409.68,459.27 409.64,458.58 409.82,455.56 L 410.00 452.63 L 413.00 455.50 C415.40,457.80 416.00,459.22 416.00,462.55 C416.00,475.15 422.51,490.50 431.28,498.56 C433.33,500.45 437.19,503.36 441.56,506.41 ZM 592.50 394.00 C592.50,398.44 592.45,398.50 588.91,398.80 C584.51,399.17 582.75,397.33 583.18,392.82 C583.49,389.60 583.64,389.50 588.00,389.50 L 592.50 389.50 ZM 678.75 416.34 C675.91,415.47 674.00,414.29 674.00,413.42 C674.00,412.31 674.66,412.14 676.75,412.72 C678.26,413.14 682.99,413.42 687.25,413.35 C691.51,413.28 695.00,413.59 695.00,414.04 C695.00,415.37 688.91,418.01 686.10,417.90 C684.67,417.84 681.36,417.14 678.75,416.34 ZM 585.32 399.81 C583.69,399.02 582.43,397.35 581.82,395.56 C582.29,396.32 582.98,397.14 583.92,398.08 C585.28,399.43 586.53,400.29 587.71,400.67 C586.90,400.46 586.02,400.15 585.32,399.81 ZM 501.06 537.08 C495.54,535.31 490.54,533.37 487.36,531.69 C480.90,528.28 459.98,518.00 459.50,518.00 C459.33,518.00 457.21,516.69 454.29,514.79 C457.47,516.74 460.22,518.30 461.96,519.06 C465.99,520.84 480.29,527.94 487.00,531.49 C490.38,533.28 495.47,535.28 501.06,537.08 ZM 590.18 387.40 C592.83,388.15 595.00,390.47 595.00,394.00 C595.00,397.35 591.94,401.04 589.25,400.93 C589.05,400.92 588.80,400.90 588.54,400.85 C590.08,401.04 591.52,400.36 592.96,398.81 C595.63,395.94 595.57,391.61 592.81,389.04 C591.97,388.25 591.08,387.71 590.18,387.40 ZM 480.19 530.20 C490.26,534.46 501.05,538.54 507.50,540.42 C499.81,538.18 490.26,534.57 480.19,530.20 ZM 581.75 391.53 C581.80,391.39 581.87,391.25 581.94,391.11 C583.20,388.75 585.23,387.50 587.31,387.21 C585.99,387.47 584.69,388.22 583.45,389.45 C582.70,390.21 582.13,390.88 581.75,391.53 ZM 431.67 505.24 C431.80,505.31 431.93,505.39 432.06,505.46 C442.09,511.12 448.90,514.91 454.31,517.82 C451.43,516.31 448.61,514.77 445.87,513.23 C439.28,509.53 433.01,506.00 431.92,505.39 C431.84,505.35 431.76,505.30 431.67,505.24 Z"
            fill="rgba(245,177,100,1)" />
        <path
            d="M 807.26 439.51 C800.37,440.83 799.30,441.12 798.92,440.73 C798.79,440.60 798.74,440.39 798.58,440.13 C798.29,439.65 796.34,438.99 794.26,438.66 C792.18,438.32 788.37,436.72 785.79,435.08 C782.09,432.73 780.97,431.38 780.45,428.58 C779.36,422.80 782.22,419.18 791.49,414.54 C798.85,410.87 800.02,410.59 807.96,410.58 C814.87,410.57 817.31,410.99 820.73,412.79 C828.17,416.71 830.31,425.10 825.37,430.97 C821.78,435.24 816.44,437.76 807.26,439.51 ZM 583.92 398.08 C580.36,394.51 580.26,392.65 583.45,389.45 C586.44,386.47 589.89,386.31 592.81,389.04 C595.57,391.61 595.63,395.94 592.96,398.81 C590.19,401.79 587.41,401.56 583.92,398.08 ZM 592.50 394.00 L 592.50 389.50 L 588.00 389.50 C583.64,389.50 583.49,389.60 583.18,392.82 C582.75,397.33 584.51,399.17 588.91,398.80 C592.45,398.50 592.50,398.44 592.50,394.00 Z"
            fill="rgba(254,177,127,1)" />
        <path
            d="M 558.50 545.84 C545.85,545.38 533.03,544.60 530.00,544.12 L 524.50 543.24 L 531.00 543.00 C535.20,542.85 536.61,542.54 535.00,542.13 C530.87,541.08 523.71,536.99 520.16,533.64 C515.24,529.00 512.11,522.27 510.20,511.85 C511.86,520.80 514.44,526.55 518.59,530.99 C521.00,533.57 523.78,535.57 524.94,535.57 C527.55,535.57 527.58,533.83 525.00,531.50 C523.90,530.50 523.00,529.24 523.00,528.69 C523.00,528.14 521.93,525.40 520.63,522.60 C520.01,521.28 519.47,520.17 518.99,519.04 C515.37,510.43 515.50,500.23 515.50,381.00 C515.50,250.61 515.55,248.71 519.55,240.93 C521.20,237.72 525.70,232.87 529.00,230.75 C535.29,226.72 558.52,223.30 598.04,220.59 C642.01,217.57 652.61,217.00 661.00,217.15 C668.86,217.30 668.42,217.39 655.16,218.40 C647.08,219.02 641.18,219.88 641.66,220.37 C642.13,220.86 638.16,221.00 632.50,220.68 C626.59,220.35 623.73,220.46 625.50,220.94 L 628.50 221.76 L 625.69 221.88 C624.15,221.95 623.14,222.42 623.46,222.93 C623.77,223.44 623.51,224.19 622.86,224.59 C622.13,225.04 621.96,224.88 622.40,224.15 C622.89,223.36 621.99,223.00 619.53,223.00 C616.72,223.00 615.75,223.49 615.09,225.25 C614.56,226.69 614.65,227.76 615.37,228.21 C616.19,228.73 616.18,229.22 615.34,230.06 C613.76,231.64 617.46,235.31 619.86,234.55 C622.60,233.68 626.59,238.74 626.92,243.50 C627.07,245.70 627.64,247.78 628.18,248.11 C628.73,248.45 629.13,249.01 629.09,249.36 C629.04,249.71 629.01,250.79 629.02,251.75 C629.03,253.11 629.22,253.20 629.89,252.14 C630.50,251.18 630.95,251.11 631.45,251.92 C632.42,253.48 631.76,259.34 630.52,260.23 C629.87,260.70 629.96,260.97 630.75,260.98 C631.44,260.99 632.00,262.10 632.00,263.44 C632.00,264.79 632.84,266.48 633.87,267.20 C634.95,267.95 635.97,270.20 636.27,272.50 C636.56,274.70 637.00,277.40 637.25,278.50 C637.50,279.60 637.21,281.29 636.61,282.25 C635.81,283.53 635.84,284.52 636.74,285.95 C637.55,287.26 637.62,288.12 636.93,288.54 C636.25,288.97 636.30,289.66 637.09,290.61 C637.75,291.40 638.01,292.32 637.68,292.66 C637.34,292.99 637.73,294.20 638.54,295.35 C640.14,297.65 640.52,302.64 639.12,303.17 C637.60,303.74 639.87,316.00 642.07,319.09 C643.21,320.69 643.94,322.00 643.70,322.00 C643.46,322.00 643.68,323.91 644.18,326.25 C644.69,328.59 645.22,331.17 645.36,332.00 C645.51,332.83 646.17,334.51 646.85,335.75 C647.52,336.99 647.84,338.00 647.56,338.00 C647.28,338.00 647.52,339.23 648.09,340.73 C648.66,342.22 649.35,345.26 649.64,347.48 C651.23,359.93 651.63,360.77 657.54,364.11 C660.45,365.75 663.49,368.09 664.30,369.30 C666.87,373.17 670.86,377.00 672.33,377.00 C673.11,377.00 674.32,377.67 675.00,378.50 C675.68,379.33 676.81,380.00 677.50,380.00 C678.19,380.00 681.34,382.01 684.50,384.46 C687.66,386.91 692.48,389.66 695.20,390.57 C697.92,391.47 700.37,392.81 700.65,393.54 C700.94,394.27 701.80,394.63 702.58,394.33 C703.45,394.00 704.00,394.42 704.00,395.42 C704.00,396.33 704.67,397.32 705.50,397.64 C706.70,398.10 706.52,398.59 704.59,400.11 C703.27,401.15 701.66,402.00 701.02,402.00 C700.38,402.00 699.14,402.72 698.27,403.59 C697.29,404.56 695.58,405.02 693.84,404.76 C692.28,404.53 691.00,404.79 691.00,405.32 C691.00,405.93 687.53,406.07 681.75,405.68 C674.23,405.17 672.87,405.28 674.50,406.27 C674.57,406.32 674.66,406.36 674.76,406.41 C673.32,406.00 671.85,405.43 670.00,404.64 C662.14,401.30 657.09,400.64 650.64,402.13 C646.05,403.19 645.64,403.56 643.39,408.65 C642.08,411.63 641.00,415.73 641.00,417.78 C641.00,424.80 644.01,437.24 647.12,443.08 C650.80,449.98 656.58,457.00 658.58,457.00 C659.36,457.00 660.00,457.34 660.00,457.75 C660.01,458.16 662.70,459.62 666.00,461.00 C669.30,462.38 671.99,463.86 672.00,464.31 C672.00,464.75 672.45,464.84 672.99,464.50 C673.54,464.17 674.63,464.25 675.42,464.70 C678.12,466.21 686.85,466.09 693.11,464.47 C708.67,460.44 719.16,451.03 725.56,435.34 C724.23,439.22 722.58,442.79 720.71,445.50 C714.79,454.08 706.43,460.40 696.65,463.67 C691.51,465.40 690.62,465.91 693.50,465.48 C699.85,464.55 708.02,460.09 714.28,454.13 C724.95,443.99 730.14,431.56 730.37,415.62 C730.46,408.89 730.09,405.14 729.20,403.87 C728.06,402.25 728.13,401.98 729.69,401.87 C730.69,401.80 732.47,401.64 733.66,401.51 C735.24,401.34 735.67,401.70 735.24,402.80 C734.91,403.68 735.08,404.07 735.66,403.71 C736.21,403.37 739.28,405.74 742.48,408.98 C745.68,412.21 749.40,415.13 750.75,415.47 C752.10,415.81 754.52,417.06 756.12,418.25 C758.49,420.00 760.80,420.49 768.28,420.81 L 777.51 421.22 L 777.48 429.61 C777.46,434.22 777.73,438.00 778.07,438.00 C778.41,438.00 779.55,438.79 780.60,439.75 C783.06,442.01 783.05,446.51 780.57,448.32 C779.52,449.09 778.58,450.69 778.49,451.86 C778.37,453.58 778.89,454.00 781.17,454.00 C782.73,454.00 784.00,454.45 784.00,455.00 C784.00,456.98 787.90,455.95 789.86,453.45 C792.14,450.56 791.82,444.76 789.23,441.77 C788.07,440.43 787.99,439.72 788.89,438.64 C789.79,437.54 789.71,437.10 788.49,436.63 C787.39,436.21 787.01,436.55 787.21,437.73 C787.38,438.70 786.75,439.58 785.75,439.79 C783.74,440.20 783.30,437.44 785.25,436.68 C786.07,436.36 785.54,435.38 783.72,433.84 C783.26,433.46 782.85,433.04 782.48,432.60 C783.26,433.37 784.32,434.15 785.79,435.08 C788.37,436.72 792.18,438.32 794.26,438.66 C795.16,438.80 796.04,439.01 796.77,439.24 C796.21,440.40 796.53,445.53 797.38,446.86 C797.86,447.60 798.53,447.83 798.88,447.36 C799.22,446.89 800.40,446.36 801.50,446.19 C802.60,446.02 804.40,445.72 805.50,445.52 C806.60,445.33 808.15,445.13 808.95,445.08 C810.02,445.02 810.11,444.71 809.28,443.88 C807.88,442.48 808.79,439.78 810.35,440.65 C811.19,441.12 811.20,440.97 810.41,440.11 C809.87,439.52 809.06,439.31 807.54,439.46 C816.55,437.71 821.82,435.20 825.37,430.97 C826.40,429.75 827.12,428.43 827.55,427.06 C827.17,429.53 826.42,432.01 825.78,432.80 C824.70,434.13 824.74,434.24 826.00,433.50 C827.27,432.75 827.30,432.86 826.19,434.24 C824.16,436.74 827.89,438.47 830.85,436.40 C833.55,434.50 833.54,434.06 830.67,430.97 C828.23,428.34 828.19,426.00 830.58,426.00 C831.64,426.00 831.96,424.63 831.86,420.47 C831.70,413.24 833.28,411.22 834.37,417.26 C834.64,418.75 835.14,420.42 835.49,420.98 C835.84,421.54 835.64,422.00 835.06,422.00 C834.48,422.00 834.00,422.90 834.00,424.00 C834.00,425.10 834.48,426.00 835.06,426.00 C835.64,426.00 835.84,426.45 835.50,427.00 C835.16,427.55 835.32,428.00 835.85,428.00 C836.38,428.00 837.18,423.61 837.63,418.25 C838.34,409.69 838.52,409.05 839.07,413.00 L 839.70 417.50 L 839.85 411.69 C839.93,408.50 839.66,406.09 839.25,406.35 C838.84,406.61 838.65,403.48 838.83,399.41 C839.01,395.33 839.56,392.00 840.05,392.00 C840.53,392.00 841.11,387.39 841.33,381.75 C841.55,376.11 841.57,384.77 841.38,401.00 C841.19,417.23 840.37,441.30 839.55,454.50 C837.27,491.25 833.63,505.06 823.35,516.06 C816.78,523.08 813.99,524.89 804.79,528.07 L 796.84 530.82 L 803.17 531.49 C805.56,531.75 807.50,531.80 809.32,531.64 C806.38,532.30 803.22,532.91 800.00,533.42 C781.47,536.35 776.83,536.98 759.00,538.99 C694.43,546.24 629.43,548.46 558.50,545.84 ZM 613.60 416.84 C617.03,415.58 620.64,413.04 624.60,409.10 C632.45,401.28 632.63,401.02 634.60,394.85 C635.54,391.91 636.63,389.05 637.02,388.50 C638.28,386.74 637.92,370.66 636.55,367.50 C635.83,365.85 634.51,362.45 633.61,359.94 C629.88,349.51 618.49,339.37 607.83,336.99 C592.77,333.62 579.64,338.91 569.04,352.61 C566.36,356.08 563.60,363.31 562.45,369.94 C558.00,395.42 572.89,416.90 596.50,419.02 C604.42,419.74 606.42,419.48 613.60,416.84 ZM 539.42 218.51 C524.11,220.00 522.18,220.19 520.73,219.45 C520.50,219.34 520.28,219.20 520.03,219.04 C519.00,218.39 520.17,218.00 524.03,217.72 C529.32,217.33 529.30,217.32 523.25,217.41 C519.81,217.46 517.00,217.11 517.00,216.63 C517.00,216.16 516.10,216.00 515.00,216.29 C513.90,216.58 513.25,216.41 513.56,215.91 C513.87,215.41 513.00,215.00 511.63,215.00 C510.27,215.00 505.63,213.62 501.33,211.92 C485.29,205.62 451.35,190.71 447.22,188.15 C441.69,184.72 441.82,182.07 447.60,180.40 C455.03,178.25 496.30,172.94 516.00,171.59 L 524.50 171.01 L 515.24 173.44 C499.92,177.48 492.27,182.97 493.19,189.27 C493.98,194.71 508.23,197.74 517.91,194.53 C520.77,193.58 525.22,191.20 527.80,189.23 C530.39,187.26 531.87,186.42 531.11,187.35 C530.34,188.28 530.01,189.34 530.37,189.70 C530.73,190.07 529.78,191.69 528.26,193.32 L 525.50 196.28 L 528.25 194.52 C530.03,193.39 531.00,193.19 531.00,193.94 C531.00,194.59 531.56,194.80 532.25,194.41 C533.25,193.85 533.25,193.98 532.25,195.05 C530.59,196.85 530.67,199.48 532.43,200.94 C533.79,202.07 534.23,206.00 533.00,206.00 C532.37,206.00 532.00,207.88 531.69,212.50 C531.51,215.41 531.63,215.49 535.50,215.23 C537.70,215.09 541.53,214.73 544.00,214.44 C547.41,214.05 548.14,214.18 547.00,215.01 C545.86,215.84 546.75,216.03 550.70,215.80 C553.56,215.64 555.55,215.85 555.12,216.28 C554.69,216.71 547.62,217.72 539.42,218.51 ZM 578.32 441.79 C580.54,441.12 584.08,438.94 586.18,436.94 C590.77,432.58 591.26,428.17 587.74,422.95 C584.64,418.35 571.98,412.88 563.00,412.25 C549.95,411.35 539.00,418.34 539.00,427.57 C539.00,430.63 539.48,432.25 540.49,432.64 C541.32,432.95 541.72,433.64 541.39,434.17 C541.07,434.70 541.74,435.38 542.90,435.68 C544.05,435.99 545.00,436.55 545.00,436.95 C545.00,437.59 552.23,441.15 556.00,442.36 C559.08,443.35 574.41,442.96 578.32,441.79 ZM 414.37 198.27 C412.92,209.10 412.13,247.23 412.03,310.60 L 411.94 373.70 L 409.34 374.89 C408.39,375.32 407.44,375.60 406.83,375.64 C407.19,372.16 407.37,343.64 407.23,309.28 C407.08,272.58 407.27,241.87 407.64,241.03 C408.02,240.19 408.40,238.82 408.50,238.00 C408.60,237.18 408.96,235.82 409.31,235.00 C409.66,234.18 410.10,230.80 410.29,227.50 C410.47,224.20 410.78,246.48 410.98,277.00 L 411.33 332.50 L 412.09 269.38 C412.54,232.05 413.29,203.87 413.93,200.38 C414.07,199.64 414.21,198.93 414.37,198.27 ZM 806.40 510.57 C810.81,512.49 811.87,512.34 817.76,508.96 C827.49,503.38 831.54,494.50 826.99,488.71 C819.63,479.36 802.00,489.00 802.00,502.39 C802.00,507.37 802.90,509.05 806.40,510.57 ZM 514.50 542.51 C513.95,542.32 510.80,541.38 507.50,540.42 C498.45,537.78 480.81,530.81 468.67,525.07 C459.59,520.79 452.50,516.99 432.06,505.46 C429.11,503.80 427.00,501.84 427.00,500.76 C427.00,500.19 427.65,500.30 428.49,500.99 C429.31,501.67 430.67,501.96 431.53,501.63 C433.15,501.01 435.63,502.39 450.28,512.15 C455.11,515.37 459.26,518.00 459.50,518.00 C459.98,518.00 480.90,528.28 487.36,531.69 C493.31,534.83 505.66,538.89 515.77,541.02 C523.11,542.57 523.78,542.86 520.00,542.85 C517.53,542.85 515.05,542.69 514.50,542.51 ZM 828.67 456.33 C829.86,457.53 833.17,457.08 832.39,455.83 C831.91,455.05 832.21,454.87 833.30,455.29 C834.20,455.63 835.22,455.45 835.57,454.88 C836.45,453.47 833.03,450.56 830.12,450.24 C827.99,450.00 827.88,450.16 829.12,451.68 C830.05,452.82 830.09,453.14 829.25,452.63 C827.93,451.84 827.41,455.08 828.67,456.33 ZM 759.60 444.40 C760.27,446.15 762.23,445.92 764.30,443.85 C765.47,442.67 765.58,441.98 764.74,441.14 C762.08,438.48 758.26,440.91 759.60,444.40 ZM 408.02 290.25 C408.01,292.31 408.45,294.00 409.00,294.00 C410.27,294.00 410.27,289.97 409.00,288.00 C408.28,286.88 408.03,287.46 408.02,290.25 ZM 406.27 375.58 C406.24,375.57 406.22,375.55 406.20,375.53 C405.64,374.97 405.69,319.20 406.03,271.83 C406.00,277.88 405.98,284.14 405.97,290.50 C405.82,361.11 405.78,373.47 406.27,375.58 ZM 727.73 408.45 C729.36,411.59 729.41,417.64 728.35,424.20 C729.16,417.78 729.05,411.01 727.73,408.45 ZM 819.86 412.36 C823.71,413.85 826.16,416.29 827.21,419.67 C826.10,416.93 823.89,414.46 820.73,412.79 C820.43,412.64 820.15,412.49 819.86,412.36 ZM 781.66 421.72 C781.73,421.58 781.82,421.45 781.90,421.31 C783.28,419.11 786.31,416.96 791.70,414.36 C793.59,413.45 795.08,412.76 796.39,412.23 C795.04,412.79 793.50,413.54 791.49,414.54 C786.45,417.06 783.30,419.29 781.66,421.72 ZM 484.91 212.60 C471.06,206.02 446.15,196.15 432.18,191.54 C440.35,194.16 452.76,198.86 468.00,205.16 C474.74,207.94 480.30,210.37 484.91,212.60 ZM 817.28 529.56 C822.55,527.71 825.00,526.50 825.00,525.76 C825.00,526.72 821.95,528.13 817.28,529.56 ZM 507.08 231.39 C505.76,228.33 503.99,225.68 501.54,223.22 C504.07,225.73 505.77,228.35 507.08,231.39 ZM 406.94 208.20 C406.98,207.38 407.02,206.81 407.06,206.50 C407.56,202.80 408.41,199.49 409.63,196.53 C408.41,199.49 407.56,202.80 407.07,206.50 C407.02,206.83 406.98,207.40 406.94,208.20 Z"
            fill="rgba(254,224,72,1)" />
        <path
            d="M 829.78 214.61 C830.93,214.81 831.79,215.03 832.34,215.27 C835.10,216.49 836.70,216.69 838.02,215.99 C840.95,214.42 842.26,214.79 846.13,218.25 C852.28,223.75 852.52,226.30 852.32,284.00 C852.12,342.45 851.58,373.15 850.09,409.50 C849.51,423.80 848.83,441.12 848.58,448.00 C848.02,463.77 846.35,483.22 845.02,489.60 C844.46,492.29 843.86,495.50 843.69,496.72 C843.52,497.95 843.10,499.23 842.76,499.57 C842.42,499.91 842.38,500.83 842.68,501.60 C842.97,502.37 842.69,503.00 842.05,503.00 C841.41,503.00 841.14,503.42 841.46,503.93 C841.77,504.44 841.57,505.15 841.00,505.50 C840.43,505.85 840.23,506.56 840.54,507.07 C840.86,507.58 840.61,508.00 840.00,508.00 C839.39,508.00 839.16,508.45 839.50,509.00 C839.84,509.55 839.61,510.00 839.00,510.00 C838.39,510.00 838.16,510.45 838.50,511.00 C838.84,511.55 838.61,512.00 838.00,512.00 C837.39,512.00 837.16,512.45 837.50,513.01 C837.85,513.56 837.42,514.28 836.56,514.61 C835.70,514.94 835.00,515.62 835.00,516.11 C835.00,517.33 827.24,525.00 826.00,525.00 C825.45,525.00 825.00,525.34 825.00,525.76 C825.00,526.11 824.43,526.58 823.26,527.17 C824.34,526.60 825.00,526.08 825.00,525.70 C825.00,525.25 824.44,525.22 823.75,525.63 C823.02,526.07 823.13,525.60 824.00,524.50 C824.83,523.46 825.05,522.87 824.50,523.19 C823.95,523.51 822.41,523.35 821.08,522.85 L 818.67 521.94 L 822.08 518.27 C824.30,515.89 823.51,516.38 819.83,519.66 C819.82,519.66 819.81,519.67 819.80,519.68 C820.88,518.65 822.04,517.46 823.35,516.06 C833.63,505.06 837.27,491.25 839.55,454.50 C840.37,441.30 841.19,417.23 841.38,401.00 C841.57,384.77 841.55,376.11 841.33,381.75 C841.20,385.17 840.93,388.20 840.64,390.07 C840.91,388.12 841.12,384.89 841.18,381.25 L 841.36 370.50 L 842.64 385.50 L 842.81 377.00 C845.63,236.86 845.60,234.83 840.22,224.04 C837.38,218.34 834.94,215.99 829.78,214.61 ZM 417.99 185.30 C420.65,183.20 423.79,181.47 427.44,180.11 C432.52,178.21 447.00,174.94 456.50,173.55 C458.70,173.23 461.85,172.72 463.50,172.42 C465.15,172.12 468.08,171.72 470.00,171.53 C471.92,171.34 481.38,170.26 491.00,169.14 C500.62,168.02 511.88,166.84 516.00,166.53 C520.12,166.22 531.15,165.31 540.50,164.50 C589.39,160.31 660.30,159.42 698.50,162.53 C702.35,162.84 707.19,163.07 709.25,163.02 C711.42,162.98 713.00,163.43 713.00,164.08 C713.00,164.73 713.72,164.94 714.67,164.57 C715.59,164.22 716.63,164.40 716.98,164.97 C717.33,165.54 719.62,166.19 722.06,166.40 C724.50,166.62 726.50,166.88 726.50,166.97 C726.50,167.06 728.05,167.34 729.95,167.58 C731.85,167.83 733.72,168.55 734.11,169.18 C734.50,169.81 736.21,170.33 737.91,170.33 C739.61,170.33 741.00,170.69 741.00,171.14 C741.00,171.58 741.67,171.68 742.50,171.36 C743.33,171.05 744.00,171.27 744.00,171.86 C744.00,172.45 744.67,172.68 745.50,172.36 C746.33,172.05 747.00,172.21 747.00,172.73 C747.00,173.96 753.79,176.02 755.59,175.33 C756.37,175.03 757.00,175.27 757.00,175.86 C757.00,176.45 757.67,176.68 758.50,176.36 C759.33,176.05 760.00,176.25 760.00,176.81 C760.00,177.88 765.56,179.55 767.75,179.14 C768.44,179.02 769.00,179.33 769.00,179.85 C769.00,180.36 769.56,180.76 770.25,180.73 C774.37,180.58 776.43,181.08 775.12,181.91 C773.20,183.12 777.19,184.36 780.25,183.50 C781.80,183.07 782.08,183.16 781.15,183.80 C780.13,184.51 780.41,184.89 782.33,185.37 C783.71,185.71 785.66,185.73 786.67,185.40 C788.20,184.91 788.25,184.99 787.00,185.91 C785.67,186.88 785.67,187.11 787.00,187.98 C787.83,188.52 790.60,189.25 793.16,189.60 C796.57,190.06 797.96,190.74 798.32,192.12 C798.90,194.32 797.36,194.51 791.66,192.92 C789.54,192.33 787.60,192.07 787.34,192.32 C787.08,192.58 791.96,193.98 798.19,195.42 C802.00,196.30 805.09,197.03 807.61,197.64 C805.34,197.14 802.65,196.58 799.50,195.95 C793.45,194.75 782.65,192.19 775.50,190.27 C717.28,174.61 698.02,170.42 670.00,167.36 C652.33,165.43 600.70,165.19 572.50,166.92 C562.05,167.56 546.08,168.50 537.00,169.02 C527.92,169.54 516.90,170.17 512.50,170.43 C506.70,170.76 505.46,170.65 508.00,170.01 C513.11,168.73 500.26,169.69 478.50,172.22 C468.60,173.36 458.41,174.35 455.85,174.40 C453.29,174.46 451.39,174.81 451.62,175.19 C451.85,175.56 450.01,176.18 447.53,176.55 C445.05,176.92 443.26,177.61 443.55,178.08 C443.84,178.55 442.83,179.22 441.29,179.55 C439.76,179.89 437.99,180.32 437.37,180.51 C436.75,180.69 435.82,180.42 435.30,179.90 C434.26,178.86 428.84,180.51 422.15,183.92 C419.87,185.09 418.00,185.73 418.00,185.35 C418.00,185.33 418.00,185.31 417.99,185.30 ZM 539.42 218.51 C547.62,217.72 554.69,216.71 555.12,216.28 C555.26,216.14 555.14,216.02 554.82,215.94 C555.22,216.03 555.40,216.16 555.31,216.31 C555.03,216.76 557.44,216.87 560.65,216.56 C596.18,213.14 648.30,209.84 654.24,210.63 C657.09,211.00 659.00,210.87 659.00,210.28 C659.00,209.71 667.26,209.03 679.25,208.62 C684.28,208.45 690.22,208.20 695.96,207.94 C691.07,208.19 686.29,208.42 682.50,208.58 C673.70,208.95 666.08,209.50 665.57,209.80 C664.01,210.71 668.18,211.85 674.00,212.09 L 679.50 212.33 L 674.00 213.00 C668.70,213.65 668.65,213.69 672.50,214.01 C676.17,214.31 676.00,214.40 670.50,215.07 C664.11,215.84 691.33,215.53 729.08,214.47 C720.30,214.75 710.93,215.06 701.00,215.41 C694.67,215.64 684.33,215.87 678.00,215.93 C671.09,215.99 667.05,216.38 667.87,216.90 C668.70,217.43 663.74,218.05 655.13,218.49 C653.97,218.55 652.87,218.62 651.86,218.68 C652.90,218.58 654.01,218.49 655.16,218.40 C668.42,217.39 668.86,217.30 661.00,217.15 C652.61,217.00 642.01,217.57 598.04,220.59 C558.52,223.30 535.29,226.72 529.00,230.75 C525.70,232.87 521.20,237.72 519.55,240.93 C517.36,245.20 516.35,247.69 515.89,270.59 C515.99,261.52 516.09,255.91 516.20,254.85 C516.81,249.14 516.64,247.89 515.03,246.03 C512.86,243.54 512.40,243.45 510.62,245.24 C508.41,247.44 508.01,268.15 507.93,383.00 C507.93,389.56 507.93,395.85 507.93,401.87 C507.81,344.89 508.02,281.04 508.63,259.50 C509.25,237.28 509.20,236.33 507.08,231.39 C503.42,222.91 496.78,217.68 477.33,209.13 C481.63,210.97 485.10,212.54 487.15,213.58 C489.81,214.92 492.21,216.02 492.49,216.01 C494.70,215.96 495.04,216.12 494.52,216.96 C494.19,217.49 495.50,217.27 497.43,216.46 C502.11,214.51 505.95,214.62 511.71,216.87 C514.77,218.06 516.72,218.44 520.14,218.26 C519.55,218.47 519.53,218.72 520.03,219.04 C520.28,219.20 520.50,219.34 520.73,219.45 C522.18,220.19 524.11,220.00 539.42,218.51 ZM 522.47 171.54 C522.49,171.64 522.18,171.77 521.50,171.95 C518.96,172.64 519.37,172.78 524.18,172.88 C529.05,172.98 530.15,173.38 531.93,175.63 C534.34,178.70 534.38,178.96 532.83,182.68 C532.19,184.23 531.61,185.73 531.55,186.00 C531.52,186.13 531.35,186.51 531.10,187.01 C530.63,187.19 529.44,187.99 527.80,189.23 C525.22,191.20 520.77,193.58 517.91,194.53 C508.23,197.74 493.98,194.71 493.19,189.27 C492.27,182.97 499.92,177.48 515.24,173.44 L 522.47 171.54 ZM 806.40 510.57 C802.90,509.05 802.00,507.37 802.00,502.39 C802.00,489.00 819.63,479.36 826.99,488.71 C831.54,494.50 827.49,503.38 817.76,508.96 C811.87,512.34 810.81,512.49 806.40,510.57 ZM 531.26 196.71 C531.42,196.76 531.68,196.70 531.99,196.51 C532.56,196.15 532.83,195.54 532.59,195.15 C532.35,194.75 532.90,194.34 533.82,194.24 C534.75,194.13 537.14,193.77 539.14,193.43 C544.11,192.58 547.21,194.35 546.81,197.80 C546.58,199.74 545.68,200.74 543.50,201.47 C541.85,202.02 540.13,202.93 539.67,203.49 C539.13,204.15 538.67,204.07 538.34,203.25 C538.06,202.56 536.97,202.00 535.92,202.00 C534.20,202.00 533.54,203.06 533.88,205.25 C533.95,205.66 533.65,206.00 533.21,206.00 C532.62,206.00 532.27,206.80 531.99,209.03 C532.25,206.91 532.56,206.00 533.00,206.00 C534.23,206.00 533.79,202.07 532.43,200.94 C531.16,199.89 530.76,198.23 531.26,196.71 ZM 405.95 299.28 C405.96,296.46 405.96,293.53 405.97,290.50 C406.06,248.15 406.55,210.35 407.07,206.50 C407.26,205.05 407.51,203.65 407.82,202.31 C406.57,211.59 406.43,232.32 406.04,285.50 C406.01,290.17 405.98,294.78 405.95,299.28 ZM 416.50 188.00 C415.50,189.10 414.47,190.00 414.19,190.00 C413.92,190.00 414.50,189.10 415.50,188.00 C416.50,186.90 417.53,186.00 417.81,186.00 C418.08,186.00 417.50,186.90 416.50,188.00 ZM 410.53 194.54 C411.39,192.83 412.38,191.24 413.52,189.79 C413.51,189.92 413.52,190.03 413.57,190.11 C413.85,190.56 413.09,191.91 411.90,193.10 C411.40,193.60 410.94,194.06 410.53,194.54 ZM 799.22 530.00 L 804.79 528.07 C806.25,527.57 807.55,527.10 808.72,526.64 C805.22,528.31 801.75,529.58 799.22,530.00 ZM 413.21 213.15 C412.79,225.48 412.38,245.57 412.09,269.38 C412.42,241.62 412.71,224.27 413.21,213.15 ZM 745.42 213.99 C746.09,213.97 746.76,213.95 747.44,213.92 C760.59,213.51 772.66,213.25 783.33,213.15 C772.57,213.30 759.94,213.58 745.42,213.99 ZM 800.00 531.00 C800.65,531.14 801.44,531.27 802.25,531.40 L 796.84 530.82 L 797.99 530.43 C798.31,530.59 799.01,530.79 800.00,531.00 ZM 470.66 199.01 C461.52,195.07 455.23,192.25 451.01,190.10 C455.37,192.20 462.67,195.50 470.66,199.01 ZM 440.88 194.54 C433.90,192.01 428.55,190.31 425.24,189.59 C428.49,190.18 433.00,191.64 439.53,194.04 C439.97,194.20 440.43,194.37 440.88,194.54 ZM 420.95 189.38 C418.21,190.00 416.38,191.95 415.09,195.71 C415.58,194.04 416.16,192.94 416.85,192.00 C417.93,190.55 419.13,189.66 420.95,189.38 ZM 513.57 215.54 C513.47,215.52 513.36,215.51 513.25,215.49 C512.28,215.33 511.17,215.08 509.84,214.71 C510.64,214.90 511.26,215.00 511.63,215.00 C512.65,215.00 513.38,215.22 513.57,215.54 ZM 406.78 375.95 C406.77,375.98 406.76,376.00 406.75,376.00 C406.67,376.00 406.60,376.02 406.53,376.01 C406.30,375.96 406.15,375.57 406.05,372.99 C406.26,374.54 406.54,375.69 406.78,375.95 ZM 815.72 530.09 C815.33,530.23 814.92,530.36 814.50,530.50 C812.78,531.08 811.22,531.44 809.57,531.61 C811.39,531.30 813.58,530.75 815.72,530.09 ZM 625.19 220.59 C625.91,220.44 628.51,220.46 632.50,220.68 C636.81,220.92 640.14,220.90 641.28,220.66 C640.25,220.96 637.28,220.97 632.39,220.69 C628.47,220.47 625.91,220.44 625.19,220.59 ZM 519.31 217.27 C517.89,217.18 517.00,217.01 517.00,216.80 C517.00,216.61 516.61,216.37 515.97,216.15 C516.58,216.13 517.00,216.31 517.00,216.63 C517.00,216.90 517.90,217.13 519.31,217.27 ZM 452.60 179.32 C456.00,178.67 460.55,177.97 466.60,177.12 C468.68,176.83 470.80,176.54 472.94,176.25 C464.78,177.34 457.47,178.43 452.60,179.32 ZM 817.07 202.00 C814.56,202.05 795.91,202.90 775.05,203.89 C795.83,202.90 814.44,202.05 817.07,202.00 ZM 530.35 190.38 C530.62,190.33 530.27,190.91 529.47,191.88 C529.89,191.30 530.20,190.78 530.35,190.38 ZM 530.94 193.67 C531.12,193.83 531.22,194.10 531.25,194.51 C531.09,194.40 531.00,194.21 531.00,193.94 C531.00,193.83 530.98,193.74 530.94,193.67 ZM 444.28 185.88 C443.71,185.32 443.39,184.81 443.27,184.33 C443.42,184.82 443.76,185.34 444.28,185.88 ZM 816.95 200.23 C817.75,200.58 818.00,200.85 818.00,201.13 C818.00,201.14 818.00,201.14 818.00,201.15 C817.99,200.87 817.66,200.57 816.95,200.23 ZM 508.96 503.00 C508.95,502.90 508.94,502.78 508.93,502.65 C508.94,502.77 508.95,502.89 508.96,503.00 C509.53,508.35 510.26,512.81 511.25,516.61 C510.26,512.81 509.53,508.35 508.96,503.00 ZM 548.66 215.89 C549.21,215.88 549.87,215.85 550.66,215.80 C551.11,215.77 551.54,215.76 551.95,215.75 C551.56,215.76 551.14,215.77 550.70,215.80 C549.90,215.85 549.22,215.88 548.66,215.89 ZM 641.68 220.40 C641.68,220.39 641.67,220.38 641.66,220.37 C641.62,220.33 641.62,220.29 641.66,220.25 C641.69,220.31 641.69,220.35 641.68,220.40 Z"
            fill="rgba(253,249,176,1)" />
        <path
            d="M 518.59 530.99 C513.20,525.23 510.46,517.26 508.96,503.00 C508.23,495.97 507.89,456.31 507.93,383.00 C508.01,268.15 508.41,247.44 510.62,245.24 C512.40,243.45 512.86,243.54 515.03,246.03 C516.64,247.89 516.81,249.14 516.20,254.85 C515.82,258.51 515.50,316.62 515.50,384.00 C515.50,515.66 515.34,511.23 520.63,522.60 C521.93,525.40 523.00,528.14 523.00,528.69 C523.00,529.24 523.90,530.50 525.00,531.50 C527.58,533.83 527.55,535.57 524.94,535.57 C523.78,535.57 521.00,533.57 518.59,530.99 ZM 800.00 531.00 C798.08,530.59 797.26,530.20 798.19,530.13 C803.45,529.72 814.57,524.34 819.83,519.66 C823.51,516.38 824.30,515.89 822.08,518.27 L 818.67 521.94 L 821.08 522.85 C822.41,523.35 823.95,523.51 824.50,523.19 C825.05,522.87 824.83,523.46 824.00,524.50 C823.13,525.60 823.02,526.07 823.75,525.63 C824.44,525.22 825.00,525.25 825.00,525.70 C825.00,527.42 811.28,532.06 806.72,531.87 C804.95,531.80 801.92,531.41 800.00,531.00 ZM 696.65 463.67 C706.43,460.40 714.79,454.08 720.71,445.50 C727.37,435.84 731.27,415.28 727.73,408.45 C723.74,400.72 717.23,399.54 704.75,404.26 C697.58,406.98 695.19,407.39 686.50,407.44 C680.29,407.47 675.74,407.03 674.50,406.27 C672.87,405.28 674.23,405.17 681.75,405.68 C687.53,406.07 691.00,405.93 691.00,405.32 C691.00,404.79 692.28,404.53 693.84,404.76 C695.58,405.02 697.29,404.56 698.27,403.59 C699.14,402.72 700.38,402.00 701.02,402.00 C701.66,402.00 703.27,401.15 704.59,400.11 C706.52,398.59 706.70,398.10 705.50,397.64 C704.67,397.32 704.00,396.33 704.00,395.42 C704.00,394.42 703.45,394.00 702.58,394.33 C701.80,394.63 700.94,394.27 700.65,393.54 C700.37,392.81 697.92,391.47 695.20,390.57 C692.48,389.66 687.66,386.91 684.50,384.46 C681.34,382.01 678.19,380.00 677.50,380.00 C676.81,380.00 675.68,379.33 675.00,378.50 C674.32,377.67 673.11,377.00 672.33,377.00 C670.86,377.00 666.87,373.17 664.30,369.30 C663.49,368.09 660.45,365.75 657.54,364.11 C651.63,360.77 651.23,359.93 649.64,347.48 C649.35,345.26 648.66,342.22 648.09,340.73 C647.52,339.23 647.28,338.00 647.56,338.00 C647.84,338.00 647.52,336.99 646.85,335.75 C646.17,334.51 645.51,332.83 645.36,332.00 C645.22,331.17 644.69,328.59 644.18,326.25 C643.68,323.91 643.46,322.00 643.70,322.00 C643.94,322.00 643.21,320.69 642.07,319.09 C639.87,316.00 637.60,303.74 639.12,303.17 C640.52,302.64 640.14,297.65 638.54,295.35 C637.73,294.20 637.34,292.99 637.68,292.66 C638.01,292.32 637.75,291.40 637.09,290.61 C636.30,289.66 636.25,288.97 636.93,288.54 C637.62,288.12 637.55,287.26 636.74,285.95 C635.84,284.52 635.81,283.53 636.61,282.25 C637.21,281.29 637.50,279.60 637.25,278.50 C637.00,277.40 636.56,274.70 636.27,272.50 C635.97,270.20 634.95,267.95 633.87,267.20 C632.84,266.48 632.00,264.79 632.00,263.44 C632.00,262.10 631.44,260.99 630.75,260.98 C629.96,260.97 629.87,260.70 630.52,260.23 C631.76,259.34 632.42,253.48 631.45,251.92 C630.95,251.11 630.50,251.18 629.89,252.14 C629.22,253.20 629.03,253.11 629.02,251.75 C629.01,250.79 629.04,249.71 629.09,249.36 C629.13,249.01 628.73,248.45 628.18,248.11 C627.64,247.78 627.07,245.70 626.92,243.50 C626.59,238.74 622.60,233.68 619.86,234.55 C617.46,235.31 613.76,231.64 615.34,230.06 C616.18,229.22 616.19,228.73 615.37,228.21 C614.65,227.76 614.56,226.69 615.09,225.25 C615.75,223.49 616.72,223.00 619.53,223.00 C621.99,223.00 622.89,223.36 622.40,224.15 C621.96,224.88 622.13,225.04 622.86,224.59 C623.51,224.19 623.77,223.44 623.46,222.93 C623.14,222.42 624.15,221.95 625.69,221.88 L 628.50 221.76 L 625.50 220.94 C623.73,220.46 626.56,220.36 632.39,220.69 C638.98,221.07 642.07,220.92 641.65,220.24 C641.24,219.58 645.99,218.97 655.13,218.49 C663.74,218.05 668.70,217.43 667.87,216.90 C667.05,216.38 671.09,215.99 678.00,215.93 C684.33,215.87 694.67,215.64 701.00,215.41 C775.66,212.77 817.99,212.30 827.11,214.01 C834.18,215.33 836.93,217.44 840.22,224.04 C845.60,234.83 845.63,236.86 842.81,377.00 L 842.64 385.50 L 842.00 378.00 L 841.36 370.50 L 841.18 381.25 C841.08,387.16 840.59,392.00 840.08,392.00 C839.57,392.00 839.01,395.33 838.83,399.41 C838.65,403.48 838.84,406.61 839.25,406.35 C839.66,406.09 839.93,408.50 839.85,411.69 L 839.70 417.50 L 839.07 413.00 C838.52,409.05 838.34,409.69 837.63,418.25 C837.18,423.61 836.38,428.00 835.85,428.00 C835.32,428.00 835.16,427.55 835.50,427.00 C835.84,426.45 835.64,426.00 835.06,426.00 C834.48,426.00 834.00,425.10 834.00,424.00 C834.00,422.90 834.48,422.00 835.06,422.00 C835.64,422.00 835.84,421.54 835.49,420.98 C835.14,420.42 834.64,418.75 834.37,417.26 C833.28,411.22 831.70,413.24 831.86,420.47 C831.96,424.63 831.64,426.00 830.58,426.00 C828.19,426.00 828.23,428.34 830.67,430.97 C833.54,434.06 833.55,434.50 830.85,436.40 C827.89,438.47 824.16,436.74 826.19,434.24 C827.30,432.86 827.27,432.75 826.00,433.50 C824.74,434.24 824.70,434.13 825.78,432.80 C826.49,431.93 827.33,428.99 827.65,426.28 C828.89,415.80 822.34,410.56 808.00,410.59 C800.24,410.60 798.82,410.93 791.70,414.36 C786.31,416.96 783.28,419.11 781.90,421.31 C779.24,425.57 779.98,430.69 783.72,433.84 C785.54,435.38 786.07,436.36 785.25,436.68 C783.30,437.44 783.74,440.20 785.75,439.79 C786.75,439.58 787.38,438.70 787.21,437.73 C787.01,436.55 787.39,436.21 788.49,436.63 C789.71,437.10 789.79,437.54 788.89,438.64 C787.99,439.72 788.07,440.43 789.23,441.77 C791.82,444.76 792.14,450.56 789.86,453.45 C787.90,455.95 784.00,456.98 784.00,455.00 C784.00,454.45 782.73,454.00 781.17,454.00 C778.89,454.00 778.37,453.58 778.49,451.86 C778.58,450.69 779.52,449.09 780.57,448.32 C783.05,446.51 783.06,442.01 780.60,439.75 C779.55,438.79 778.41,438.00 778.07,438.00 C777.73,438.00 777.46,434.22 777.48,429.61 L 777.51 421.22 L 768.28 420.81 C760.80,420.49 758.49,420.00 756.12,418.25 C754.52,417.06 752.10,415.81 750.75,415.47 C749.40,415.13 745.68,412.21 742.48,408.98 C739.28,405.74 736.21,403.37 735.66,403.71 C735.08,404.07 734.91,403.68 735.24,402.80 C735.67,401.70 735.24,401.34 733.66,401.51 C732.47,401.64 730.69,401.80 729.69,401.87 C728.13,401.98 728.06,402.25 729.20,403.87 C730.09,405.14 730.46,408.89 730.37,415.62 C730.14,431.56 724.95,443.99 714.28,454.13 C708.02,460.09 699.85,464.55 693.50,465.48 C690.62,465.91 691.51,465.40 696.65,463.67 ZM 784.64 414.57 C794.33,410.15 802.33,400.94 804.96,391.16 C805.60,388.77 806.16,382.70 806.19,377.66 C806.30,363.22 802.68,354.00 793.30,344.80 C779.44,331.21 759.59,332.04 745.81,346.77 C737.56,355.59 734.72,363.51 734.81,377.50 C734.89,391.19 738.69,400.87 746.90,408.29 C757.79,418.13 771.76,420.45 784.64,414.57 ZM 828.67 456.33 C827.41,455.08 827.93,451.84 829.25,452.63 C830.09,453.14 830.05,452.82 829.12,451.68 C827.88,450.16 827.99,450.00 830.12,450.24 C833.03,450.56 836.45,453.47 835.57,454.88 C835.22,455.45 834.20,455.63 833.30,455.29 C832.21,454.87 831.91,455.05 832.39,455.83 C833.17,457.08 829.86,457.53 828.67,456.33 ZM 797.38 446.86 C796.41,445.36 796.14,439.00 797.04,439.00 C797.35,439.00 798.07,439.47 798.64,440.04 C799.36,440.76 801.16,440.75 804.50,440.00 C808.12,439.19 809.59,439.21 810.41,440.11 C811.20,440.97 811.19,441.12 810.35,440.65 C808.79,439.78 807.88,442.48 809.28,443.88 C810.11,444.71 810.02,445.02 808.95,445.08 C808.15,445.13 806.60,445.33 805.50,445.52 C804.40,445.72 802.60,446.02 801.50,446.19 C800.40,446.36 799.22,446.89 798.88,447.36 C798.53,447.83 797.86,447.60 797.38,446.86 ZM 759.60 444.40 C758.26,440.91 762.08,438.48 764.74,441.14 C765.58,441.98 765.47,442.67 764.30,443.85 C762.23,445.92 760.27,446.15 759.60,444.40 ZM 405.86 371.25 C405.64,368.64 405.72,330.05 406.04,285.50 C406.67,198.30 406.67,198.33 411.90,193.10 C413.09,191.91 413.85,190.56 413.57,190.11 C413.29,189.66 414.17,188.25 415.53,186.97 C416.89,185.70 418.00,184.96 418.00,185.35 C418.00,185.73 419.87,185.09 422.15,183.92 C428.84,180.51 434.26,178.86 435.30,179.90 C435.82,180.42 436.75,180.69 437.37,180.51 C437.99,180.32 439.76,179.89 441.29,179.55 C442.83,179.22 443.84,178.55 443.55,178.08 C443.26,177.61 445.05,176.92 447.53,176.55 C450.01,176.18 451.85,175.56 451.62,175.19 C451.39,174.81 453.29,174.46 455.85,174.40 C458.41,174.35 468.60,173.36 478.50,172.22 C500.26,169.69 513.11,168.73 508.00,170.01 C505.46,170.65 506.70,170.76 512.50,170.43 C516.90,170.17 527.92,169.54 537.00,169.02 C546.08,168.50 562.05,167.56 572.50,166.92 C600.70,165.19 652.33,165.43 670.00,167.36 C698.02,170.42 717.28,174.61 775.50,190.27 C782.65,192.19 793.45,194.75 799.50,195.95 C812.92,198.62 818.00,200.05 818.00,201.16 C818.00,201.62 817.66,202.00 817.25,202.00 C813.27,202.00 725.06,206.26 714.00,206.98 C706.03,207.50 690.39,208.24 679.25,208.62 C667.26,209.03 659.00,209.71 659.00,210.28 C659.00,210.87 657.09,211.00 654.24,210.63 C648.30,209.84 596.18,213.14 560.65,216.56 C557.44,216.87 555.03,216.76 555.31,216.31 C555.59,215.86 553.49,215.64 550.66,215.80 C546.73,216.03 545.86,215.84 547.00,215.01 C548.14,214.18 547.41,214.05 544.00,214.44 C541.53,214.73 537.70,215.09 535.50,215.23 C531.63,215.49 531.51,215.41 531.69,212.50 C532.02,207.57 532.38,206.00 533.21,206.00 C533.65,206.00 533.95,205.66 533.88,205.25 C533.54,203.06 534.20,202.00 535.92,202.00 C536.97,202.00 538.06,202.56 538.34,203.25 C538.67,204.07 539.13,204.15 539.67,203.49 C540.13,202.93 541.85,202.02 543.50,201.47 C545.68,200.74 546.58,199.74 546.81,197.80 C547.21,194.35 544.11,192.58 539.14,193.43 C537.14,193.77 534.75,194.13 533.82,194.24 C532.90,194.34 532.35,194.75 532.59,195.15 C532.83,195.54 532.56,196.15 531.99,196.51 C531.42,196.86 531.01,196.78 531.09,196.32 C531.63,193.25 530.93,192.81 528.25,194.52 L 525.50 196.28 L 528.50 192.98 C530.15,191.17 530.89,190.04 530.15,190.47 C529.02,191.11 529.02,190.85 530.11,188.87 C530.84,187.57 531.48,186.27 531.55,186.00 C531.61,185.73 532.19,184.23 532.83,182.68 C534.38,178.96 534.34,178.70 531.93,175.63 C530.15,173.38 529.05,172.98 524.18,172.88 C519.37,172.78 518.96,172.64 521.50,171.95 C528.74,170.00 493.88,173.28 466.60,177.12 C448.01,179.73 443.59,180.95 443.22,183.54 C442.82,186.41 448.27,189.42 473.50,200.23 C499.34,211.29 508.13,214.67 513.25,215.49 C515.31,215.82 517.00,216.41 517.00,216.80 C517.00,217.18 520.03,217.43 523.75,217.34 L 530.50 217.19 L 523.50 217.96 C517.75,218.60 515.64,218.40 511.71,216.87 C505.95,214.62 502.11,214.51 497.43,216.46 C495.50,217.27 494.19,217.49 494.52,216.96 C495.04,216.12 494.70,215.96 492.49,216.01 C492.21,216.02 489.81,214.92 487.15,213.58 C480.01,209.96 455.50,199.90 439.53,194.04 C423.90,188.30 419.85,187.93 416.85,192.00 C413.38,196.70 412.86,205.18 412.09,269.38 L 411.33 332.50 L 410.98 277.00 C410.78,246.48 410.47,224.20 410.29,227.50 C410.10,230.80 409.66,234.18 409.31,235.00 C408.96,235.82 408.60,237.18 408.50,238.00 C408.40,238.82 408.02,240.19 407.64,241.03 C407.27,241.87 407.08,272.58 407.23,309.28 C407.38,345.97 407.22,376.00 406.88,376.00 C406.53,376.00 406.08,373.86 405.86,371.25 ZM 416.50 188.00 C417.50,186.90 418.08,186.00 417.81,186.00 C417.53,186.00 416.50,186.90 415.50,188.00 C414.50,189.10 413.92,190.00 414.19,190.00 C414.47,190.00 415.50,189.10 416.50,188.00 ZM 408.02 290.25 C408.03,287.46 408.28,286.88 409.00,288.00 C410.27,289.97 410.27,294.00 409.00,294.00 C408.45,294.00 408.01,292.31 408.02,290.25 Z"
            fill="rgba(254,239,102,1)" />
    </g>
</svg>