<svg xmlns="http://www.w3.org/2000/svg" viewBox="0 0 12540 8360">
    <path d="M5800 5670a1460 1460 0 010-30l10-90-10 120zm960 370z" fill="rgba(0,0,0,1)" />
    <path
        d="M4000 4400h10l60 80c40 30 40 40 30 80v70l10 50 10 90 10 20c0 30-20 0-30-50-10-60-30-80-50-60-10 20-10 100 10 160v-10c-30-70-50-230-50-340l-10-90zm80 490zm-130-580l20 30a300 300 0 00-20-30zm-90-100c20 10 40 10 50 30l-50-30z"
        fill="rgba(143,78,7,1)" />
    <path
        d="M4100 4530c0-20 0-30-30-50l-60-80-20-30-20-30c-70-120-60-110-110-130-70-10-110-30-160-80l-80-90c-60-60-80-100-70-140 0-40 40-60 90-60h40l-20-30c-20-40-30-120-10-150 10-30 70-40 110-30l50 40c20 20 20 20 20 0 0-30 30-80 50-80h90l10 10v-550c10 510 10 550 30 570l30 20c10 0 20 40 20 90 0 30 0 30 20 20h50c40 0 70 20 100 70 10 30 10 30-10 90l-80 180c-40 40-40 60-20 110 40 60 50 80 130 160l130 100c50 20 60 20 160 20 90 0 110 0 140 20 50 30 70 70 70 140-10 40-10 60-40 80l-50 30-20 10h-120l-70-20-70-20-20-20c-30 0-190-110-230-140l-30-30zm2040-360c-80 20-100 30-170 20-240-20-390-240-350-490 20-70 40-140 70-170 110-140 240-190 390-160 100 20 220 130 260 230l30 80v210l-20 60c-20 60-30 60-100 140l-110 80zm1710-20c-130 50-270 30-380-70-80-70-120-170-120-300 0-140 30-220 110-310 140-150 330-160 470-20 100 90 130 180 130 330l-10 130c-30 100-110 190-200 240zm-920 490c-60 20-150 20-180 10h-20l-10-10-60-30-60-30-10-10c-20 0-80-70-120-140-30-60-60-180-60-250l20-90c30-50 30-60 80-70 60-10 110-10 190 30 60 20 80 20 170 20 80 0 110 0 180-30 120-40 190-30 230 40 20 40 10 190-20 260-60 160-170 260-330 300zm1630-300v140l40-40a3150 3150 0 0190-80l30-50c50-80 60-100 30-160a450 450 0 01-40-130c-40-130-10-220 80-220 30 0 40 0 70 30l30 40v-30c0-40 30-110 60-140 20-20 40-20 80-20 60 10 90 40 80 110v50l40-20c40-10 60-10 90 20 50 40 40 110-20 160l-40 40h30c40 0 80 20 90 60s-20 70-100 130c-120 80-150 90-200 100h-50l-50 90c-90 160-220 270-340 310-10 10-20 10-20 30l20-420zM6970 6020l10-10 10-10c0-10 0-50 20-90l20-110v-270h-110l240-20a408680 408680 0 01160-20v70c10 120-20 380-60 460v30a780 780 0 00180 20c-20 0-10 10 30 40 60 30 100 80 110 120 0 30 0 40-30 60-50 40-70 50-220 50l-190-10h-30l-20-10-10-10h-20l-20-10-30-10-20-10c-10 10-30-10-40-20-40-40-40-100-10-170 10-20 20-40 10-50h-10c30 0 40-10 30-20zm-1440-480h580l-300 10-10 90-10 150-60 230c0 10 10 20 170 20-150 0-180 10-190 20v20c0 10 10 20 40 20l40 20h20c20 0 120 80 110 90l10 10v110c-50 50-190 90-260 70l-70-10h-40l-30-10c-10 10-80-10-80-20h-10l-10-10-10-10-30-20c-20-20-20-30-20-70l20-120 10-20 20-30 10-30h-40l20-10c30-10 50-40 40-60l10-10 10-10v-20l10-20 10-80 20-80v-10l10-30v-180h10zm1220-950c90 30 200 10 250-40l20-40c0-110-170-210-340-200-140 10-170 40-140 120s110 140 210 160zm970-870c80 30 170-30 170-120 0-40-30-110-60-120-70-40-150-10-180 50-30 70 0 150 70 190zm-1670 0l50 30c50 0 120-80 120-130l-20-70c-40-90-170-90-210-10-40 70-10 140 60 180zm-200 280l40 10c30 0 60-40 60-70 0-70-100-90-130-30-10 30 0 70 30 90zm1680-50c30 20 40 20 70 0 30-30 30-60 0-90s-50-30-80 0-30 60 10 90zm-740 210l70 20c30 0 90-30 90-40l-80-10h-130l50 30zm1790-1850v1380-1380zm-710 1470c10 20 20 20 40 10 10-20 10-40-20-40-20 0-30 10-20 30zm-1680 20c20 10 40 10 50-10 0-20-10-20-20-20-30 0-50 20-30 30zm600 2240h-730a32070 32070 0 00730 0zm-1490 10zm-110-4460zm1950-20l140 30a8740 8740 0 01-140-30zm1030 4590c-130-30-310-60-530-80l-60-10a7820 7820 0 01590 90zm370-1380v10a1040 1040 0 010-10zm-280-2860l70 30 110 70c-40-40-100-70-180-100zM4100 4630v-60 60zm1390 910l-150-10h30l120 10zm-1340 760c0 30 30 60 90 90-60-30-90-60-90-90zm50-60zm-220-3700zm4580-350l10 30v10l-10-40zM4110 4740z"
        fill="rgba(21,18,19,1)" />
    <path
        d="M5530 5540l-160-10-240-30c-150-20-350-100-620-250-310-160-370-210-440-390-20-50-40-160-20-180s40 0 50 60c10 50 20 80 30 50v20l10 10 10 10v30l10 10 10 10 10 20 20 30 120 120c480 270 710 370 950 390a13700 13700 0 002040 0c10 10 0 10-40 10-90 20-90 20-80 40l110 10a65650 65650 0 00-190 10h20c50 0 80-20 40-20-20 0-20 0-10-10h-90c-50 0-60 10-60 20l10 20a17480 17480 0 01-1490 20zM4060 3750v-20c0-50-10-90-20-90l-30-20c-20-20-20-70-30-710a4420 4420 0 0160-980 240 240 0 01-10 0l-20 60v30l-10 30v130c-10 80-10 310 10 500l10 100v-80c0-70 10-60 10 60 0 100 10 20 10-240 0-400 10-480 40-560 30-60 140-170 140-140l-10 10-60 50c-50 50-60 80-80 190-10 70-20 1590-10 1680zm4440 550l-10 210-10-40a5040 5040 0 0020-170zm-20 500l-30 140-10 30v-30a2070 2070 0 0040-280c0-40 0-40 10-10l-10 150zm-810 660l-270 20h20l120-10 130-10zm-3540-680l-10-10-10-30a1290 1290 0 000-10l10 30 10 20zm30-1030h-70 70zm3970 1640zm320-200zm80-270zM4240 3850l-10-30v-10 10l10 30zm-20 60v-10 10z"
        fill="rgba(184,112,6,1)" />
    <path
        d="M6440 6130l190 10c130 0 190-10 230-40l60-30 30-20v20h-10l-10 10a10 10 0 0010 10c-30 70-30 130 10 170 10 10 30 30 40 20l20 10 30 10 20 10h20l10 10 20 10h30l190 10a690 690 0 0020 0c-70 0-90 0-80 10l50 10h40l-40 10-20 10-30 10c-90 30-490 60-1250 70-590 10-640 10-800-40-90-20-120-50-120-90 0-50 20-70 80-80 60-20 130-60 140-90l30-10v-10c0-10 30-60 40-50l20-10-10 30-10 20-20 120c0 40 0 50 20 70l30 20 10 10 10 10h10c0 10 70 30 80 20l30 10h40l70 10c70 20 210-20 260-70v-110l-10-10c10-10-90-90-110-90h-20l-40-20h-20 40l-30-10-10-20h110c50 0 80 0 120 20l110 30c60 10 70 10 110-10s40-20 110-10l150 30zm1140 110l10 10c10-10 10-10 10 10s0 30-20 30c-10 0-30 0-50 20l-10 10 30-30c20-20 30-30 30-50zm-1870-160v-20c10-20 50-20 280-20-230 0-260 0-270 20l-10 20zm1250-30zm470 20l40 40-40-40z"
        fill="rgba(190,186,205,1)" />
    <path
        d="M5670 6590c-780-40-1230-100-1430-200-100-50-120-110-40-150a3130 3130 0 011230-190l-40 40c-10-10-40 40-40 50v10l-30 10c-10 30-80 70-140 90-60 10-80 30-80 80 0 40 30 70 120 90 160 50 210 50 800 40a8750 8750 0 001300-90l40-10h-40l-50-10c-10-10 10-10 80-10 110 0 140-10 180-30 20-20 40-20 50-20 20 0 20-10 20-30s0-20-10-10l-10-20c-10-40-50-90-110-120-70-50-60-50 170-30 490 50 750 120 800 200 50 70-120 160-410 210a7280 7280 0 01-900 90c-160 10-1240 20-1460 10zm770-460l-150-30c-70-10-70-10-110 10s-50 20-110 10l-110-30c-40-20-70-20-120-20h-110l10 20 30 10h-30c-30 0-40-20-20-40 10-20 50-20 370-30a8630 8630 0 01830 40l-60 30c-40 30-100 40-230 40l-190-10zm490-50l10-10 10 10-10 10-10-10z"
        fill="rgba(215,211,223,1)" />
    <path
        d="M7190 5490c-10-20-10-20 80-40 40 0 50 0 40-10s10-10 50-10h60l110-20a5590 5590 0 00470-80c130-20 250-50 250-70l10-10 90-90 20-10 10-20v-10l10-10v-10l10-10v-10l10-10v-30l10-10 10-10v-20l10-30a1500 1500 0 010-30v30l10-30 30-140 10-150c-10-30-10-30-10 10l-10 40a5000 5000 0 0030-600 30340 30340 0 0010-1840c-40-140-80-190-190-250a6290 6290 0 00-980-320l-40-10-30-10-50-10-50-10h-20l-20-10-40-10h-100a11600 11600 0 00-2720 170c-110 40-170 120-190 230 10-80 30-110 70-150l60-50 10-10c0-30-110 80-140 140-30 80-40 160-40 560 0 260-10 340-10 240 0-120-10-130-10-60v80l-10-100a4010 4010 0 0120-750c30-70 80-140 160-180 60-20 210-70 280-70l180-30c230-30 760-80 1120-100 520-30 1110-20 1330 20 150 20 410 90 910 260 430 140 510 200 560 400 40 150 10 2260-40 2690l-40 190c-50 150-120 220-270 260a4100 4100 0 01-800 110l-120 10h-110zm-440-900c-100-20-180-80-210-160s0-110 140-120c170-10 340 90 340 200l-20 40c-50 50-160 70-250 40zm270 930l-10-20c0-10 10-20 60-20h90c-10 10-10 10 10 10 40 0 10 20-40 20l-70 10h-40zm660-140a12930 12930 0 01-90 10l90-10zm-2710-10zm350 70zM4060 2960z"
        fill="rgba(207,139,14,1)" />
    <path
        d="M7880 1850l440 160c110 60 150 110 190 250l10 370c0-370-10-400-60-450-40-30-50-40-80-20-10 10-30 0-60-10-50-20-380-30-850-10a9070 9070 0 01-730-10l60-10h-60c-60 0-100-10-80-20l170-10 310-20a106570 106570 0 011040-60c0-10-30-20-200-60l-110-30 50 10c50 20 70 10 60-10 0-10-10-20-50-20l-60-20v-20l10-10zm-160 1870c-70-40-100-120-70-190 30-60 110-90 180-50 30 10 60 80 60 120 0 90-90 150-170 120zm-1670 0c-70-40-100-110-60-180 40-80 170-80 210 10l20 70c0 50-70 130-120 130l-50-30zm1480 230c-40-30-40-60-10-90s50-30 80 0 30 60 0 90c-30 20-40 20-70 0zm340-170c-10-20 0-30 20-30 30 0 30 20 20 40-20 10-30 10-40-10zm-1680 20c-20-10 0-30 30-30 10 0 20 0 20 20-10 20-30 20-50 10zm1630-1970l50 20h-50c-20 0-20 0-10-10l10-10zm-70-10l60 10-10 10c-30 0-70-10-50-20zm-60-20l30 10h-20l-10-10-10-10 10 10zm830 1450z"
        fill="rgba(253,253,241,1)" />
    <path
        d="M5600 5460a3530 3530 0 01-440-50c-110-20-230-60-290-100l-250-120-310-200c-80-80-150-240-150-360 0-40-10-50-30-70l-30-30v50-50l30 30a1340 1340 0 00320 180l70 20h120l20-10 50-30c30-20 30-40 40-80 0-70-20-110-70-140-30-20-50-20-140-20-100 0-110 0-160-20l-130-100c-80-80-90-100-130-160-20-50-20-70 20-110l80-180c20-50 20-70 10-90-30-60-80-90-130-80h20v-630c0-720 10-1110 30-1150 20-50 40-70 80-70 50 0 520 180 670 260 90 50 140 100 170 160a82050 82050 0 0020 2720c20 160 50 250 110 310l150 80c20 10 0 10-40 10h-60l50 10 290 20a14570 14570 0 0010 0zm-980-240c160 80 330 150 460 180l10 10a2090 2090 0 01-470-190zm-560-2300zm30 830l-30 10 30-10zm160 1240l70 60 40 30a10180 10180 0 01-110-90z"
        fill="rgba(244,188,40,1)" />
    <path
        d="M5780 4420h-220l-110-50-20-10-20-20-10-10-10-50c0-100 110-170 240-160 90 10 220 60 250 110s30 100-20 140l-80 50zm-1360 640c-80-40-90-50-100-40l-40-10h-10a520 520 0 01-90-110l-10-20-10-10-10-10v-30l-10-10-10-10v-30l-10-20-10-30a2760 2760 0 00-10-170v-30l30 30c20 20 30 30 30 70 0 120 70 280 150 360l110 70zm1510-1120c0 40-10 50-40 50-40 0-60-20-60-60 0-30 10-30 50-30h50zm860 220l-50-30h130l80 10c0 10-60 40-90 40l-70-20zm-940-160l-30-40a140 140 0 0060 50l-30-10zm-840 1370l-140-50a7380 7380 0 00140 50zm890-1500c30 10 50 30 50 70 0 30-30 70-60 70l40-20c30-30 30-70 0-100l-30-20zM4800 5300zm1020-1380v-10l50-40-40 20-10 30zM4320 5050a13120 13120 0 00140 80l-140-80z"
        fill="rgba(245,177,100,1)" />
    <path
        d="M8070 4400l-80 10v-10l-50-10-80-40c-40-20-50-40-60-60-10-60 20-100 110-140 80-40 90-40 170-40 70 0 90 0 130 20 70 40 90 120 40 180-30 40-90 70-180 90zm-2230-420c-40-30-40-50-10-90 30-30 70-30 100 0s30 70 0 100-60 30-90-10zm90-40v-40h-50c-40 0-50 0-50 30 0 40 20 60 60 60 30 0 40-10 40-50z"
        fill="rgba(254,177,127,1)" />
    <path
        d="M5590 5460l-290-20-50-10h60c40 0 60 0 40-10l-150-80c-50-50-80-120-100-220 20 90 40 150 90 190 20 30 50 50 60 50 30 0 30-20 0-40l-20-30-20-60-20-40c-40-90-30-190-30-1380 0-1300 0-1320 40-1400 10-30 60-80 90-100a8880 8880 0 011260-120l-130 10-90 10h-70l30 10h-30l-30 10v20l-10-10c10-10 0-10-20-10-30 0-40 0-50 20v50c-10 20 20 50 50 50 30-10 70 40 70 90l10 40 10 10v30h20v90l10 20 20 40 20 60 10 60v120l10 20 10 20c10 30 20 80 0 80-10 10 10 130 30 160l20 30v40a1870 1870 0 0130 100l10 20v30l20 60c10 130 20 140 80 170l60 50 80 80 30 20 30 10 70 40 100 70c30 0 50 20 60 30h20l10 10 20 30c10 0 10 10-10 20l-40 20-30 20-40 10h-30l-90 10h-70l-50-10c-80-40-130-40-190-30-50 10-50 20-80 70l-20 90c0 70 30 190 60 250 40 70 100 140 120 140l10 10 60 30 60 30 10 10h20c30 10 120 10 180-10a460 460 0 0040 0l-30 10c60 0 140-50 200-110 110-100 160-220 160-380l-10-120c-10-20-10-20 10-20h40c10-10 20 0 10 10l10 10 60 50c40 30 70 60 90 60l50 30c20 20 50 20 120 30h100l-10 90 10 80 30 20c20 20 20 70 0 80l-30 40c0 20 10 20 30 20l30 10c0 20 40 10 60-20 20-20 20-80-10-110v-30c10-10 10-20-10-20-10-10-10 0-10 10l-10 20c-20 0-30-30-10-30 10-10 10-20-10-30l-20-10 40 20a280 280 0 00110 40v80h20l30-10a1850 1850 0 0070-20c-10-20 0-40 10-30v-10l-20-10c90-10 140-40 170-80l30-40-20 60v10c10-10 10-10 0 0-20 30 20 40 50 20 30-10 30-20 0-50s-30-50 0-50l10-60c0-70 10-90 20-30l10 40v10l-10 20 10 20 10 10v10l20-100c0-80 10-90 10-50l10 50v-60l-10-60v-70l10-70 10-100v190l-10 540c-30 360-60 500-170 610-60 70-90 90-180 120l-80 30h60l60 10-90 10-410 60c-650 70-1300 90-2000 70zm550-1290l110-80c70-80 80-80 100-140l20-60v-210l-30-80c-40-100-160-210-260-230-150-30-280 20-390 160-30 30-50 100-70 170-40 250 110 470 350 490 70 10 90 0 170-20zm-750-1980h-190c-10-10 0-10 40-10 50-10 50-10-10-10h-60l-20-10h-10l-20-10-110-30c-160-60-500-210-540-240-50-30-50-60 10-80 70-20 480-70 680-80l90-10-100 20c-150 40-230 100-220 160s150 90 250 60l100-60 30-20-10 30c10 0 0 20-20 30l-20 30 20-10c20-20 30-20 30-10h10v70c20 10 20 50 10 50l-10 70c0 20 0 20 40 20a1950 1950 0 00110 0c-10 10 0 10 40 10h40l-160 30zm390 2230l80-50c50-40 50-90 20-140s-160-100-250-110c-130-10-240 60-240 160l10 50 10 10 20 20 20 10 110 50h220zM4140 1980c-10 110-20 490-20 1130v630l-30 10-20 10a18790 18790 0 0010-1350l10-30v-30l10-70 10 490v560l10-640a12580 12580 0 0120-710zm3920 3130c50 10 60 10 120-20 90-60 140-140 90-200-70-100-250 0-250 130 0 50 10 70 40 90zm-2910 320l-70-30a3310 3310 0 01-800-390l40 10c10-10 40 0 180 100l100 60 270 140c60 30 190 70 290 90 70 20 80 20 40 20h-50zm3140-870c10 20 40 10 30 0l10-10h30c0-20-30-40-60-50-20 0-20 0-10 20v10c-10-10-20 20 0 30zm-690-120c0 20 20 20 40 0 10-10 20-20 10-30-30-30-70 0-50 30zM4080 2900l10 40v-60c-10-10-10-10-10 20zm-20 860a32500 32500 0 010-850v850zm3220 320v160-160zm920 40c40 20 60 40 70 80-10-30-30-60-60-70l-10-10zm-380 100v-10c10-20 40-40 100-70a830 830 0 01-10 10c-50 20-80 40-90 70zM4850 2130zm3320 3170l80-40-80 40zM5070 2310zm-1000-230v-10a400 400 0 010 10z"
        fill="rgba(254,224,72,1)" />
    <path
        d="M8300 2150h20c30 10 50 20 60 10 30-20 40-10 80 20 60 60 70 80 60 660a30680 30680 0 01-80 2130l-10 30v20l-10 10-10 10v30l-10 10v10l-10 10v10l-10 10v10l-10 20-20 10-90 90-10 10-20 10 20-10h-10v-10l10-20h-40l-20-10 30-40-20 20 30-40c110-110 140-250 170-610a13010 13010 0 0010-740v-100l20 150v-90c30-1400 30-1420-30-1530-30-60-50-80-100-90zm-4120-300l90-50a1990 1990 0 01430-80 25810 25810 0 00710-70 11600 11600 0 011810 10l50 10 30 10 40 10 40 10 30 10h20l10 10h20l10 10c0 10 70 30 90 20l10 10h20l10 10c0 10 60 30 80 20l10 10 10 10c40 0 60 0 50 10-20 10 20 20 50 20h10c-10 10-10 10 10 10h50v30l60 20c40 0 50 10 50 20 10 20-10 30-60 10l-50-10 110 30a9330 9330 0 01-220-50c-590-150-780-200-1060-230a8500 8500 0 00-1330 20l-240 10h-50l-290 20a4250 4250 0 01-310 50l-40 10-30 20-40 10-20-10c-10-10-60 10-130 40l-40 10zm1210 340a990 990 0 00160-30l60 10a11870 11870 0 011130-50h60l-60 10c-50 10-50 10-10 10 30 0 30 0-20 10a5650 5650 0 00-30 20l-130 10-30 10a1900 1900 0 0190-20 8880 8880 0 00-1320 140c-30 20-80 70-90 100-30 40-40 70-40 300a4210 4210 0 01-10-250c-20-20-30-30-40-10-30 20-30 230-30 1380v190a72120 72120 0 01-10-1710c-40-80-100-130-300-220a1880 1880 0 01150 70l30 10 20-10c50-10 90-10 150 10l80 10v10h190zm-170-470c-30 10-30 10 20 10s60 0 80 30 20 30 10 70a480 480 0 00-20 40l-30 20-100 60c-100 30-240 0-250-60s70-120 220-160l70-10zm2840 3390c-30-20-40-40-40-90 0-130 180-230 250-130 50 60 0 140-90 200-60 30-70 30-120 20zM5310 1970h10l10-20 10-10 50-10c50 0 80 10 80 50 0 20-10 30-30 30l-40 20h-20l-20-10c-20 0-20 10-20 30l-10 10-10 30 10-30c10 0 10-40-10-50l-10-40zM4060 2990v-80a22210 22210 0 0120-890 570070 570070 0 01-20 970zm110-1110l-30 20 20-20 20-20-10 20zm-60 70c0-20 10-40 30-50l-20 30-10 20zm3880 3350l60-20a940 940 0 00-60 20zM4130 2130zm3320 10h20a16690 16690 0 01-20 0zm550 3170h20-50l10-10 20 10zM4710 1990zm-300-40zm-200-60c-30 10-50 30-60 70l20-40 40-30zm930 270l-10-10h-30 20l20 10zM4070 3760l-10-30 10 30zm4090 1540l-10 10a220 220 0 0110-10zM6250 2210h80a490 490 0 00-10 0h-70zm-1060-40h-20l-10-10 10 10h20zm-660-380zm3640 230zm-2870-120l-10 20 10-20zm10 40v10-10zm-870-80l-10-20 10 20zm3730 140l10 10-10-10zM5090 5030zm400-2870h30-30zm930 40z"
        fill="rgba(253,249,176,1)" />
    <path
        d="M5190 5310c-60-60-90-140-100-280l-10-1200c0-1150 0-1360 30-1380 10-20 20-10 40 10s20 30 10 90v1290c0 1320-10 1270 50 1390l20 60 20 30c30 20 30 40 0 40-10 0-40-20-60-50zm2810 0l-20-10c50 0 170-60 220-100l20-20-30 40 20 10h40l-10 20v10h10c0 10-140 60-180 60l-70-10zm-1030-670c90-40 180-100 240-180 60-100 100-310 70-380-40-70-110-80-230-40-70 30-100 30-180 30l-120-10h70l90-10h30l40-10 30-20 40-20c20-10 20-20 10-20l-20-30-10-10h-20c-10-10-30-30-60-30l-100-70-70-40-30-10-30-20-80-80-60-50c-60-30-70-40-80-170l-20-60v-30l-10-20-20-40a1870 1870 0 00-30-130c-20-30-40-150-30-160 20 0 10-50 0-80l-10-20-10-20v-120l-10-60-20-60-20-40-10-20v-90h-20v-30l-10-10-10-40c0-50-40-100-70-90-30 0-60-30-50-50v-50c10-20 20-20 50-20 20 0 30 0 20 10l10 10v-20l30-10h30l-30-10h60l100-10 130-20 130-10c-10-10 30-10 100-10l230-10c750-20 1170-30 1260-10 70 10 100 30 130 100 60 110 60 130 30 1530v90l-10-80-10-70v100l-10 110-10 70v70l10 60v60l-10-50c0-40-10-30-10 50l-20 100v-10l-10-10-10-20 10-20v-10l-10-40c-10-60-20-40-20 30l-10 60c-30 0-30 20 0 50s30 40 0 50c-30 20-70 10-50-20 10-10 10-10 0 0v-10l20-70c10-100-60-150-200-150-80 0-90 0-160 30-60 30-90 50-100 70-30 50-20 100 20 130 20 10 20 20 10 30-20 0-10 30 10 30l10-20c0-10 0-20 10-10 20 0 20 10 10 20v30c30 30 30 90 10 110-20 30-60 40-60 20l-30-10c-20 0-30 0-30-20l30-40c20-10 20-60 0-80l-30-20-10-80 10-90h-100c-70-10-100-10-120-30l-50-30c-20 0-50-30-90-60l-60-50-10-10c10-10 0-20-10-10h-40c-20 0-20 0-10 20l10 120c0 160-50 280-160 380-60 60-140 110-200 110l30-10zm880-490c90-50 170-140 200-240l10-130c0-150-30-240-130-330-140-140-330-130-470 20-80 90-110 170-110 310 0 130 40 230 120 300 110 100 250 120 380 70zm440 410c-20-10-10-40 0-30v-10c-10-20-10-20 10-20 30 10 60 30 60 50h-30l-10 10c10 10-20 20-30 0zm-320-90v-80l20 10h110v10c-10-10-20 10-10 30v10l-30 10a1850 1850 0 01-70 10h-20zm-370-30c-20-30 20-60 50-30 10 10 0 20-10 30-20 20-40 20-40 0zm-3540-730v-850c10-880 10-880 60-930l20-30c-10 0 0-20 20-30l20-20 40-10c70-30 120-50 130-40l20 10 40-10 30-20 40-10 40-20 40-10 230-20 290-20h50l240-10 360-20c280-20 790-20 970 0a6260 6260 0 011300 290l180 50-10 10a93960 93960 0 00-2700 130c10-10 0-10-30-10l-80 10c-40 0-40 0-40-20l10-70 10-10c0-20 0-30 20-30l20 10h20l40-20c20 0 30-10 30-30 0-40-30-50-80-50l-50 10-10 10-10 20-10-10c10-30 0-30-30-10l-20 10 30-30 10-30v-10l20-30 10-30c10-40 10-40-10-70s-30-30-80-30-50 0-20-10a3110 3110 0 00-790 120c0 20 50 50 310 160a2370 2370 0 00500 170h70l-70 10c-60 10-80 0-120-10-60-20-100-20-150-10l-20 10-30-10-50-20-470-200c-160-60-200-60-230-20-40 50-40 130-50 770l-10 640v-560a13350 13350 0 00-20-390l-10 30a17840 17840 0 00-10 1350l-10-50zm110-1830l10-20-20 20-20 20 30-20zm-90 1020c0-30 0-30 10-20v60l-10-40z"
        fill="rgba(254,239,102,1)" />
</svg>